<?xml version="1.0" encoding="UTF-8"?>
<svg width="426px" height="109px" viewBox="0 0 426 109" version="1.1" xmlns="http://www.w3.org/2000/svg" xmlns:xlink="http://www.w3.org/1999/xlink">
    <!-- Generator: Sketch 62 (91390) - https://sketch.com -->
    <title>linkedin-icon</title>
    <desc>Created with Sketch.</desc>
    <g id="Page-1" stroke="none" stroke-width="1" fill="none" fill-rule="evenodd">
        <g id="linkedin-icon" fill="#FFFFFF" fill-rule="nonzero">
            <path d="M0,16.4 C0.5,16.4 1,16.5 1.6,16.5 C6.2,16.5 10.8,16.5 15.3,16.5 C15.6,16.5 16,16.5 16.3,16.5 C16.7,16.5 16.9,16.7 16.9,17.1 C16.9,17.5 16.9,17.9 16.9,18.3 C16.9,37.2 16.9,56.2 16.9,75.1 C16.9,76.9 16.4,77.3 19,77.3 C28,77.3 37,77.3 46,77.3 C47.6,77.3 47.6,77.3 47.6,78.9 C47.6,82.9 47.6,86.8 47.6,90.8 C47.6,91.1 47.6,91.3 47.6,91.6 C47.6,92.1 47.4,92.4 46.8,92.4 C46.5,92.4 46.1,92.4 45.8,92.4 C31.1,92.4 16.5,92.4 1.8,92.4 C1.2,92.4 0.6,92.4 0,92.4 C0,67.1 0,41.7 0,16.4 Z" id="Path"></path>
            <path d="M425.2,54.5 C425.2,69.8 425.2,85.1 425.2,100.3 C425.2,103 424.3,105.2 422.1,106.8 C420.7,107.9 419.1,108.5 417.3,108.4 C416.9,108.4 416.5,108.4 416.1,108.4 C386,108.4 355.9,108.4 325.9,108.4 C323.5,108.4 321.4,107.8 319.8,106 C318.4,104.5 317.6,102.8 317.6,100.7 C317.6,70.2 317.6,39.7 317.6,9.2 C317.6,7.5 317.8,5.9 318.7,4.4 C320.2,2 322.4,0.6 325.3,0.6 C342,0.6 358.7,0.6 375.3,0.6 C389.4,0.6 403.5,0.6 417.6,0.6 C421.5,0.6 425.1,3.7 425.1,8 C425.1,13.4 425.1,18.8 425.1,24.2 C425.2,34.3 425.2,44.4 425.2,54.5 Z M375,47.7 C374.7,47.3 374.9,47 374.9,46.7 C374.9,45.2 374.9,43.6 374.9,42.1 C374.9,41.1 374.7,40.9 373.7,40.8 C373.5,40.8 373.4,40.8 373.2,40.8 C369.2,40.8 365.2,40.8 361.2,40.8 C359.7,40.8 359.6,40.9 359.5,42.4 C359.5,42.5 359.5,42.7 359.5,42.8 C359.5,58.7 359.5,74.7 359.5,90.6 C359.5,91 359.5,91.5 359.6,91.9 C359.6,92.3 359.9,92.5 360.3,92.5 C360.7,92.5 361.2,92.5 361.6,92.5 C365.6,92.5 369.6,92.5 373.6,92.5 C375.8,92.5 375.5,92.7 375.6,90.5 C375.8,81.7 375.3,73 375.8,64.2 C375.9,62.7 376,61.2 376.4,59.8 C377.3,56.7 379.1,54.5 382.4,53.8 C383.4,53.6 384.5,53.6 385.5,53.6 C389.1,53.6 390.8,55 392,57.4 C392.9,59.3 393.2,61.4 393.2,63.5 C393.2,71.5 393.2,79.5 393.2,87.5 C393.2,88.7 393.2,89.9 393.2,91.2 C393.2,92.4 393.3,92.4 394.5,92.4 C399.1,92.4 403.7,92.4 408.2,92.4 C409.4,92.4 409.5,92.4 409.5,91.2 C409.3,79.9 410,68.6 409,57.4 C408.7,54.5 408.2,51.7 407,48.9 C405.1,44.5 401.8,41.7 397.2,40.4 C395.5,39.9 393.7,39.6 392,39.4 C390.6,39.3 389.1,39.2 387.7,39.5 C386,39.9 384.2,40.3 382.6,41 C380.2,42.1 378.2,43.6 376.5,45.6 C376.1,46.3 375.8,47.2 375,47.7 Z M349.6,66.7 C349.6,66.7 349.6,66.7 349.6,66.7 C349.6,58.5 349.6,50.4 349.6,42.2 C349.6,40.9 349.5,40.7 348.2,40.7 C343.8,40.7 339.5,40.7 335.1,40.7 C333.8,40.7 333.6,41 333.5,42.3 C333.5,42.5 333.5,42.6 333.5,42.8 C333.5,58.6 333.5,74.5 333.5,90.3 C333.5,90.5 333.5,90.7 333.5,91 C333.5,92.4 333.6,92.4 334.9,92.4 C339.3,92.4 343.6,92.4 348,92.4 C349.6,92.4 349.6,92.4 349.6,90.8 C349.6,82.8 349.6,74.7 349.6,66.7 Z M341.2,33.8 C346.8,34 350.9,29.6 350.9,24.6 C350.9,19.2 346.6,15.3 341.6,15.3 C336.5,15.3 332.8,19.5 332.4,23.9 C331.8,29.6 337.1,33.9 341.2,33.8 Z" id="Shape"></path>
            <path d="M301.5,54.5 C301.5,66.5 301.5,78.4 301.5,90.4 C301.5,92.7 301.5,92.4 299.5,92.4 C295.8,92.4 292.2,92.4 288.5,92.4 C286.9,92.4 286.9,92.4 286.9,90.8 C286.9,89.5 286.9,88.3 286.9,87 C286.9,86.7 287,86.3 286.7,86.2 C286.3,86 286.1,86.4 286,86.6 C285.3,87.6 284.3,88.4 283.4,89.1 C281,91 278.3,92.4 275.3,93.1 C272.1,93.8 269,93.7 265.9,93.2 C263.6,92.8 261.5,92.3 259.4,91.3 C256.4,89.9 253.8,88 251.7,85.4 C249.6,82.8 248,80.1 247,76.9 C246.2,74.2 245.5,71.5 245.6,68.6 C245.6,65.6 245.6,62.6 246.3,59.6 C247.4,54.9 249.3,50.6 252.5,46.8 C254.4,44.6 256.5,42.8 259.1,41.6 C261.6,40.4 264.3,39.4 267.2,39.3 C268.9,39.3 270.6,39.2 272.3,39.3 C276.8,39.8 281.1,41 284.3,44.5 C284.6,44.9 285,45.5 285.5,45.3 C286.1,45.1 285.9,44.4 285.9,43.9 C285.9,35.2 285.9,26.4 285.9,17.7 C285.9,16.5 285.9,16.4 287.1,16.4 C291.6,16.4 296,16.4 300.5,16.4 C301.6,16.4 301.7,16.5 301.7,17.6 C301.7,21.6 301.7,25.6 301.7,29.6 C301.5,38 301.5,46.2 301.5,54.5 Z M287,65.9 C287,65.2 286.9,63.9 286.5,62.6 C286.1,61 285.6,59.6 284.6,58.2 C283.6,56.8 282.4,55.7 280.9,54.9 C277.9,53.3 274.7,52.9 271.3,53.5 C266.8,54.3 263.8,56.9 262.3,61.1 C260.8,65.1 260.9,69.1 262.8,73.1 C264.1,75.7 266,77.6 268.8,78.7 C272.8,80.3 276.7,80 280.6,78.3 C282,77.7 283.2,76.7 284.2,75.5 C286.1,72.8 287,69.8 287,65.9 Z" id="Shape"></path>
            <path d="M190.6,92.1 C190,92.4 189.6,92.3 189.2,92.3 C183.5,92.3 177.8,92.3 172,92.3 C171.1,92.3 170.5,92 170,91.2 C166.1,85.2 162.1,79.2 158.1,73.2 C157.1,71.6 156,70.1 155,68.5 C154.8,68.2 154.6,67.9 154.3,67.7 C154,67.5 153.8,67.6 153.7,67.9 C153.6,68.3 153.7,68.8 153.7,69.2 C153.7,76.3 153.7,83.4 153.7,90.5 C153.7,92.2 153.9,92.1 152.1,92.1 C147.9,92.1 143.7,92.1 139.5,92.1 C139.2,92.1 138.9,92.1 138.6,92.1 C138.1,92.1 137.9,91.9 137.9,91.4 C137.9,91.1 137.9,90.7 137.9,90.4 C137.9,66.3 137.9,42.2 137.9,18.1 C137.9,16 138,16.3 139.7,16.3 C143.9,16.3 148.1,16.3 152.3,16.3 C152.6,16.3 152.9,16.3 153.2,16.3 C153.6,16.3 153.9,16.5 153.9,16.9 C153.9,17.2 153.9,17.5 153.9,17.8 C153.9,31.5 153.9,45.3 153.9,59 C153.9,59.6 153.5,60.4 154.2,60.6 C154.8,60.8 155,60 155.4,59.6 C156.6,58.2 157.9,56.8 159.1,55.4 C160.7,53.6 162.3,51.7 163.9,49.9 C165.2,48.5 166.4,47 167.7,45.6 C168.9,44.1 170.2,42.7 171.4,41.3 C171.8,40.8 172.2,40.6 172.9,40.6 C178.8,40.6 184.7,40.6 190.6,40.6 C190.8,40.6 191,40.6 191.3,40.8 C191,41.6 190.3,42.2 189.7,42.8 C187.8,44.9 185.9,47.1 184,49.3 C182.9,50.6 181.8,51.9 180.5,53.2 C179.4,54.3 178.4,55.6 177.3,56.8 C175.3,59.2 173.2,61.6 171.2,63.9 C170.7,64.5 170.8,64.9 171.2,65.4 C172.8,67.5 174.3,69.6 175.9,71.7 C179,75.8 182,80 185.1,84.1 C186.9,86.8 188.7,89.4 190.6,92.1 Z" id="Path"></path>
            <path d="M222.3,71.6 C216.8,71.6 211.2,71.6 205.7,71.6 C203.9,71.6 203.8,71.6 204.4,73.5 C205.9,77.8 209,80.3 213.4,81.4 C215.1,81.8 216.7,81.7 218.4,81.4 C221.4,80.8 224,79.3 226.1,77 C226.6,76.5 226.8,75.6 227.5,75.6 C228.2,75.6 228.7,76.3 229.2,76.7 C232.1,78.8 235,80.9 237.8,83 C238.5,83.5 238.5,83.6 237.9,84.2 C237.2,85 236.5,85.8 235.7,86.4 C232.1,89.6 228.1,91.9 223.4,92.9 C221.5,93.3 219.7,93.6 217.7,93.6 C214.7,93.6 211.7,93.5 208.8,92.8 C206.2,92.2 203.8,91.3 201.4,90 C199.2,88.8 197.1,87.3 195.4,85.5 C192.2,82.3 190.2,78.5 189,74.2 C187.9,70.4 188,66.5 188.3,62.7 C188.7,57.3 190.9,52.6 194.5,48.6 C196.9,45.9 199.8,43.7 203.1,42.2 C205.7,41 208.3,40.3 211,39.7 C213.2,39.2 215.5,39.3 217.8,39.3 C221.4,39.3 224.7,40.2 228,41.8 C230.2,42.9 232.1,44.3 233.8,46.1 C237,49.3 238.6,53.2 239.8,57.5 C241,61.9 240.6,66.2 240.7,70.6 C240.7,71.6 240.6,71.7 239.4,71.7 C233.7,71.6 228,71.6 222.3,71.6 Z M214.4,60.5 C217.6,60.5 220.8,60.5 224,60.5 C224.9,60.5 225.1,60.3 225,59.4 C224.7,56.8 223.6,54.7 221.6,53 C219.2,50.9 216.3,50.3 213.2,50.7 C211,51 209.1,52 207.5,53.4 C205.8,54.9 204.7,56.8 204.2,59 C203.9,60.2 204,60.5 205.3,60.5 C208.3,60.5 211.3,60.5 214.4,60.5 Z" id="Shape"></path>
            <path d="M95.4,47.3 C96,47.2 96.2,46.6 96.5,46.3 C98.8,43.4 101.7,41.4 105.3,40.3 C108.1,39.4 110.9,39.7 113.7,39.8 C115.2,39.9 116.6,40.3 118,40.6 C121.8,41.7 124.7,43.9 126.6,47.4 C128,50.1 128.7,53 129.1,56 C129.5,58.9 129.6,61.7 129.6,64.6 C129.6,73.3 129.6,82 129.6,90.7 C129.6,90.9 129.6,91 129.6,91.2 C129.6,92.3 129.6,92.3 128.5,92.3 C127.4,92.3 126.2,92.3 125.1,92.3 C121.6,92.3 118.1,92.3 114.6,92.3 C114,92.3 113.7,92.1 113.8,91.5 C113.8,90.8 113.8,90 113.8,89.3 C113.8,81.6 113.8,73.9 113.8,66.1 C113.8,63.7 113.6,61.3 112.9,59 C111.9,55.7 110.2,53.9 106.2,53.5 C104.3,53.3 102.5,53.6 100.8,54.4 C98.6,55.5 97.3,57.4 96.6,59.8 C96,61.7 95.8,63.7 95.8,65.7 C95.8,74 95.8,82.3 95.8,90.6 C95.8,92.2 96,92.2 94.3,92.2 C90.2,92.2 86,92.2 81.9,92.2 C81.5,92.2 81.1,92.2 80.7,92.2 C80.3,92.2 80.1,92 80.1,91.6 C80.1,91.3 80.1,91 80.1,90.7 C80.1,74.6 80.1,58.5 80.1,42.4 C80.1,40.8 80.1,40.8 81.7,40.8 C85.7,40.8 89.7,40.8 93.7,40.8 C95.2,40.8 95.2,40.8 95.2,42.3 C95.2,43.5 95.2,44.7 95.2,46 C95.1,46.5 95,46.9 95.4,47.3 Z" id="Path"></path>
            <path d="M55.1,66.7 C55.1,58.6 55.1,50.5 55.1,42.5 C55.1,40.9 55.1,40.9 56.7,40.9 C61,40.9 65.3,40.9 69.5,40.9 C69.7,40.9 69.9,40.9 70.2,40.9 C70.7,40.9 71,41.1 71,41.7 C71,42.1 71,42.5 71,42.9 C71,58.7 71,74.6 71,90.4 C71,92.7 71,92.4 69,92.4 C64.6,92.4 60.3,92.4 55.9,92.5 C55.2,92.5 55.1,92.3 55.1,91.7 C55.1,90.8 55.1,90 55.1,89.1 C55.1,81.5 55.1,74.1 55.1,66.7 Z" id="Path"></path>
            <path d="M63.1,33.7 C57.8,34 53.6,29.7 53.8,24.4 C53.9,19.1 57.9,15.4 63,15.3 C68.2,15.3 72.2,19.3 72.2,24.8 C72.3,29.5 68,34 63.1,33.7 Z" id="Path"></path>
        </g>
    </g>
</svg>