<svg width="31" height="20" viewBox="0 0 31 20" fill="none" xmlns="http://www.w3.org/2000/svg">
<path d="M8.7045 0.403687C9.588 0.403687 10.383 0.480187 11.112 0.636187C11.8365 0.790687 12.4545 1.04569 12.9765 1.39819C13.491 1.75069 13.893 2.21869 14.1825 2.80669C14.463 3.38719 14.6025 4.11319 14.6025 4.97119C14.6025 5.90119 14.3925 6.67819 13.971 7.29769C13.5465 7.91869 12.921 8.42719 12.087 8.82019C13.2225 9.14869 14.064 9.72319 14.622 10.5392C15.183 11.3627 15.4575 12.3482 15.4575 13.5032C15.4575 14.4407 15.279 15.2462 14.9205 15.9227C14.575 16.5891 14.0738 17.1623 13.4595 17.5937C12.8232 18.0368 12.1124 18.362 11.361 18.5537C10.5732 18.7605 9.76197 18.8643 8.9475 18.8627H0V0.403687H8.7045ZM8.178 7.86169C8.898 7.86169 9.495 7.69069 9.966 7.34419C10.434 7.00219 10.6605 6.43819 10.6605 5.66569C10.6605 5.23669 10.584 4.88269 10.434 4.60519C10.2879 4.33822 10.0716 4.11623 9.8085 3.96319C9.53315 3.79988 9.22925 3.69043 8.913 3.64069C8.56829 3.5764 8.21814 3.54575 7.8675 3.54919H4.065V7.86169H8.178ZM8.4045 15.7202C8.805 15.7202 9.186 15.6857 9.5445 15.6047C9.906 15.5267 10.227 15.4007 10.5 15.2132C10.773 15.0332 10.998 14.7887 11.16 14.4767C11.3235 14.1677 11.403 13.7642 11.403 13.2797C11.403 12.3287 11.1345 11.6522 10.6035 11.2427C10.071 10.8377 9.357 10.6367 8.4825 10.6367H4.065V15.7217H8.4045V15.7202ZM21.252 15.6587C21.8025 16.1957 22.596 16.4657 23.628 16.4657C24.3675 16.4657 25.0065 16.2782 25.545 15.9062C26.076 15.5327 26.4 15.1337 26.5245 14.7212H29.757C29.238 16.3292 28.4505 17.4782 27.3735 18.1697C26.31 18.8642 25.0155 19.2092 23.5035 19.2092C22.4505 19.2092 21.5025 19.0397 20.6535 18.7037C19.8386 18.3863 19.1022 17.8961 18.495 17.2667C17.8978 16.6226 17.4362 15.8651 17.1375 15.0392C16.8092 14.1258 16.6466 13.1612 16.6575 12.1907C16.6575 11.1917 16.824 10.2572 17.151 9.39469C17.4614 8.56096 17.9381 7.79903 18.552 7.15519C19.1595 6.52519 19.8795 6.02869 20.718 5.66419C21.5997 5.29335 22.5485 5.10849 23.505 5.12119C24.636 5.12119 25.6245 5.34019 26.4735 5.78119C27.2968 6.20216 28.0107 6.80921 28.5585 7.55419C29.103 8.29369 29.4915 9.14119 29.733 10.0907C29.9745 11.0387 30.0585 12.0287 29.9895 13.0652H20.343C20.3445 14.1212 20.7 15.1217 21.252 15.6587ZM25.47 8.63719C25.0335 8.15419 24.2955 7.89319 23.3925 7.89319C22.806 7.89319 22.3215 7.99069 21.9315 8.19169C21.5749 8.3718 21.2585 8.62234 21.0015 8.92819C20.7758 9.20586 20.6084 9.52627 20.5095 9.87019C20.423 10.157 20.3672 10.4521 20.343 10.7507H26.316C26.229 9.81469 25.908 9.12319 25.47 8.63719ZM19.593 1.64269H27.0765V3.46519H19.593V1.64269Z" fill="black"/>
</svg>
