<svg width="26" height="29" viewBox="0 0 26 29" fill="none" xmlns="http://www.w3.org/2000/svg">
<path d="M10.3895 12.2636C9.57651 12.2636 8.93601 12.9761 8.93601 13.8461C8.93601 14.7131 9.59151 15.4286 10.3895 15.4286C11.201 15.4286 11.8415 14.7131 11.8415 13.8461C11.858 12.9746 11.201 12.2636 10.3895 12.2636ZM15.5915 12.2636C14.7785 12.2636 14.138 12.9761 14.138 13.8461C14.138 14.7131 14.7935 15.4286 15.5915 15.4286C16.403 15.4286 17.0435 14.7131 17.0435 13.8461C17.042 12.9746 16.403 12.2636 15.5915 12.2636Z" fill="black"/>
<path d="M22.517 0.307129H3.42051C3.036 0.308113 2.65545 0.384822 2.30058 0.532877C1.94572 0.680932 1.62349 0.897434 1.35229 1.17002C1.0811 1.44261 0.866253 1.76594 0.720018 2.12156C0.573782 2.47718 0.499023 2.85812 0.50001 3.24263V22.5086C0.50001 24.1331 1.81101 25.4441 3.42051 25.4441H19.58L18.8225 22.8056L20.648 24.5021L22.3715 26.0981L25.4375 28.8071V3.24263C25.4385 2.85812 25.3637 2.47718 25.2175 2.12156C25.0713 1.76594 24.8564 1.44261 24.5852 1.17002C24.314 0.897434 23.9918 0.680932 23.6369 0.532877C23.2821 0.384822 22.9015 0.308113 22.517 0.307129ZM17.015 18.9176C17.015 18.9176 16.502 18.3056 16.076 17.7611C17.942 17.2331 18.6545 16.0661 18.6545 16.0661C18.0695 16.4501 17.5145 16.7231 17.015 16.9091C15.1965 17.6702 13.194 17.8779 11.258 17.5061C10.5427 17.3656 9.84173 17.1598 9.16401 16.8911C8.80658 16.7554 8.45922 16.5945 8.12451 16.4096C8.08101 16.3781 8.03901 16.3661 7.99701 16.3376C7.97454 16.3269 7.9546 16.3116 7.93851 16.2926C7.68201 16.1516 7.53951 16.0526 7.53951 16.0526C7.53951 16.0526 8.22351 17.1926 10.034 17.7341C9.60651 18.2741 9.07851 18.9176 9.07851 18.9176C5.93001 18.8171 4.73451 16.7516 4.73451 16.7516C4.73451 12.1631 6.78651 8.44463 6.78651 8.44463C8.83851 6.90413 10.79 6.94763 10.79 6.94763L10.9325 7.11863C8.36751 7.86113 7.18401 8.98613 7.18401 8.98613C7.18401 8.98613 7.49901 8.81513 8.02551 8.57363C9.54951 7.90463 10.76 7.71863 11.2595 7.67513C11.345 7.66163 11.417 7.64663 11.5025 7.64663C13.9733 7.31366 16.4857 7.78322 18.6695 8.98613C18.6695 8.98613 17.543 7.91813 15.1205 7.17713L15.32 6.94913C15.32 6.94913 17.273 6.90563 19.3235 8.44613C19.3235 8.44613 21.3755 12.1646 21.3755 16.7531C21.3755 16.7531 20.165 18.8171 17.015 18.9176Z" fill="black"/>
</svg>
