<svg width="30" height="31" viewBox="0 0 30 31" fill="none" xmlns="http://www.w3.org/2000/svg">
<path d="M27.99 8.27713C26.6811 6.00872 24.7973 4.12544 22.5285 2.81713C20.229 1.47763 17.7195 0.807129 15 0.807129C12.2805 0.807129 9.771 1.47763 7.47 2.81713C5.1705 4.15663 3.3495 5.97763 2.01 8.27713C0.6705 10.5766 0 13.0876 0 15.8071C0 18.5266 0.669 21.0376 2.01 23.3371C3.31848 25.6059 5.20238 27.4893 7.4715 28.7971C9.771 30.1366 12.2805 30.8071 15 30.8071C17.7195 30.8071 20.229 30.1366 22.53 28.7971C24.7988 27.4888 26.6826 25.6055 27.9915 23.3371C29.331 21.0376 30 18.5266 30 15.8071C30 13.0876 29.331 10.5766 27.99 8.27713ZM15 3.29713C18 3.29713 20.658 4.25713 22.98 6.17563C21.6 7.93663 19.551 9.38563 16.83 10.5256C15.327 7.80613 13.698 5.53513 11.9385 3.71563C12.9357 3.4399 13.9654 3.29915 15 3.29713ZM5.265 8.00713C6.36186 6.61427 7.7497 5.47779 9.3315 4.67713C11.1495 6.47863 12.819 8.72713 14.3415 11.4271C11.3415 12.3271 8.1705 12.7771 4.83 12.7771C3.9705 12.7771 3.321 12.7576 2.88 12.7171C3.33971 10.9987 4.15192 9.39471 5.265 8.00713ZM2.49 15.8071C2.49 15.7261 2.4945 15.6271 2.505 15.5071C2.5155 15.3871 2.52 15.2881 2.52 15.2071C2.901 15.2281 3.4815 15.2371 4.2615 15.2371C8.2605 15.2371 11.9805 14.6866 15.42 13.5871C15.7005 14.1466 15.9915 14.7766 16.29 15.4771C14.31 15.9166 12.279 16.9861 10.1985 18.6871C8.118 20.3881 6.6 22.1776 5.64 24.0571C3.54 21.6766 2.49 18.9271 2.49 15.8071ZM15 28.3171C12.159 28.3171 9.609 27.4366 7.3485 25.6786C8.25 23.8981 9.6345 22.1956 11.505 20.5771C13.374 18.9571 15.2295 17.9476 17.07 17.5471C18.231 20.7556 19.0162 24.0878 19.41 27.4771C18.0043 28.0264 16.5092 28.3112 15 28.3171ZM25.62 22.3771C24.6382 23.9589 23.3161 25.302 21.75 26.3086C21.39 23.1886 20.7 20.1481 19.6815 17.1871C21.0795 17.0881 22.329 17.0371 23.4315 17.0371C24.63 17.0371 25.9605 17.0881 27.42 17.1871C27.2242 19.0319 26.6084 20.8073 25.62 22.3771ZM23.76 14.8771C22.02 14.8771 20.4105 14.9476 18.93 15.0871C18.6164 14.2663 18.2762 13.4559 17.91 12.6571C21.009 11.2981 23.208 9.64813 24.5085 7.70713C26.3085 9.82813 27.2895 12.2476 27.4485 14.9671C26.2305 14.9071 25.0005 14.8771 23.76 14.8771Z" fill="black"/>
</svg>
