<svg width="28" height="28" viewBox="0 0 28 28" fill="none" xmlns="http://www.w3.org/2000/svg">
<path d="M26 0.307129H2C1.60218 0.307129 1.22064 0.465164 0.93934 0.746469C0.658035 1.02777 0.5 1.4093 0.5 1.80713V25.8071C0.5 26.205 0.658035 26.5865 0.93934 26.8678C1.22064 27.1491 1.60218 27.3071 2 27.3071H14.9225V16.8671H11.4155V12.7796H14.9225V9.77963C14.9225 6.29213 17.0525 4.39163 20.1725 4.39163C21.221 4.38863 22.271 4.44263 23.315 4.55213V8.18213H21.1625C19.4705 8.18213 19.1405 8.98913 19.1405 10.1696V12.7721H23.186L22.661 16.8596H19.139V27.3071H26C26.3978 27.3071 26.7794 27.1491 27.0607 26.8678C27.342 26.5865 27.5 26.205 27.5 25.8071V1.80713C27.5 1.4093 27.342 1.02777 27.0607 0.746469C26.7794 0.465164 26.3978 0.307129 26 0.307129Z" fill="black"/>
</svg>
