<svg width="28" height="28" viewBox="0 0 28 28" fill="none" xmlns="http://www.w3.org/2000/svg">
<path d="M13.9984 6.87257C12.1589 6.87257 10.3947 7.60333 9.09394 8.90408C7.79319 10.2048 7.06243 11.969 7.06243 13.8086C7.06243 15.6481 7.79319 17.4123 9.09394 18.7131C10.3947 20.0138 12.1589 20.7446 13.9984 20.7446C15.838 20.7446 17.6022 20.0138 18.9029 18.7131C20.2037 17.4123 20.9344 15.6481 20.9344 13.8086C20.9344 11.969 20.2037 10.2048 18.9029 8.90408C17.6022 7.60333 15.838 6.87257 13.9984 6.87257ZM13.9984 18.3131C12.8034 18.3131 11.6572 17.8383 10.8122 16.9933C9.96717 16.1483 9.49243 15.0021 9.49243 13.8071C9.49243 12.612 9.96717 11.4659 10.8122 10.6209C11.6572 9.77581 12.8034 9.30107 13.9984 9.30107C15.1935 9.30107 16.3396 9.77581 17.1847 10.6209C18.0297 11.4659 18.5044 12.612 18.5044 13.8071C18.5044 15.0021 18.0297 16.1483 17.1847 16.9933C16.3396 17.8383 15.1935 18.3131 13.9984 18.3131Z" fill="black"/>
<path d="M21.2089 8.23457C22.102 8.23457 22.8259 7.51062 22.8259 6.61757C22.8259 5.72453 22.102 5.00058 21.2089 5.00058C20.3159 5.00058 19.5919 5.72453 19.5919 6.61757C19.5919 7.51062 20.3159 8.23457 21.2089 8.23457Z" fill="black"/>
<path d="M26.7994 4.97358C26.4522 4.07685 25.9215 3.2625 25.2414 2.58266C24.5613 1.90283 23.7468 1.37248 22.8499 1.02558C21.8004 0.631611 20.6917 0.418587 19.5709 0.395575C18.1264 0.332575 17.6689 0.314575 14.0059 0.314575C10.3429 0.314575 9.87343 0.314575 8.44093 0.395575C7.32101 0.41741 6.21307 0.630477 5.16493 1.02558C4.26783 1.37208 3.45308 1.90228 2.77293 2.58217C2.09279 3.26206 1.56227 4.07661 1.21543 4.97358C0.821387 6.02299 0.608851 7.13183 0.58693 8.25258C0.52243 9.69558 0.50293 10.1531 0.50293 13.8176C0.50293 17.4806 0.50293 17.9471 0.58693 19.3826C0.60943 20.5046 0.82093 21.6116 1.21543 22.6631C1.56325 23.5597 2.09427 24.3739 2.77458 25.0537C3.45489 25.7335 4.26953 26.2639 5.16643 26.6111C6.21258 27.0209 7.32099 27.2491 8.44393 27.2861C9.88843 27.3491 10.3459 27.3686 14.0089 27.3686C17.6719 27.3686 18.1414 27.3686 19.5739 27.2861C20.6946 27.2633 21.8033 27.0508 22.8529 26.6576C23.7496 26.3099 24.5639 25.7791 25.2439 25.099C25.9239 24.419 26.4547 23.6047 26.8024 22.7081C27.1969 21.6581 27.4084 20.5511 27.4309 19.4291C27.4954 17.9861 27.5149 17.5286 27.5149 13.8641C27.5149 10.1996 27.5149 9.73458 27.4309 8.29908C27.4135 7.16248 27.1998 6.03745 26.7994 4.97358ZM24.9724 19.2716C24.9628 20.136 24.805 20.9924 24.5059 21.8036C24.2807 22.3869 23.9358 22.9166 23.4935 23.3586C23.0513 23.8006 22.5214 24.1452 21.9379 24.3701C21.1358 24.6677 20.2885 24.8255 19.4329 24.8366C18.0079 24.9026 17.6059 24.9191 13.9519 24.9191C10.2949 24.9191 9.92143 24.9191 8.46943 24.8366C7.61432 24.8261 6.76742 24.6683 5.96593 24.3701C5.38046 24.1466 4.84843 23.8026 4.40426 23.3605C3.9601 22.9184 3.61368 22.388 3.38743 21.8036C3.0926 21.0012 2.9349 20.1548 2.92093 19.3001C2.85643 17.8751 2.84143 17.4731 2.84143 13.8191C2.84143 10.1636 2.84143 9.79008 2.92093 8.33658C2.93063 7.47261 3.08841 6.6167 3.38743 5.80608C3.84493 4.62258 4.78243 3.69108 5.96593 3.23808C6.76781 2.94129 7.61447 2.78352 8.46943 2.77158C9.89593 2.70708 10.2964 2.68907 13.9519 2.68907C17.6074 2.68907 17.9824 2.68908 19.4329 2.77158C20.2885 2.78187 21.136 2.93968 21.9379 3.23808C22.5213 3.46348 23.0511 3.80838 23.4934 4.25062C23.9356 4.69286 24.2805 5.22268 24.5059 5.80608C24.8008 6.6085 24.9585 7.45482 24.9724 8.30958C25.0369 9.73608 25.0534 10.1366 25.0534 13.7921C25.0534 17.4461 25.0534 17.8391 24.9889 19.2731H24.9724V19.2716Z" fill="black"/>
</svg>
