<svg width="256" height="256" viewBox="0 0 256 256" fill="none" xmlns="http://www.w3.org/2000/svg">
<g clip-path="url(#clip0_2_2)">
<path d="M75.7334 210.133H180.267V251.2H75.7334V210.133Z" fill="#CCCCCC"/>
<path d="M256 46.9334C256 37.8667 248.533 30.4 239.467 30.4H16.5333C7.46667 30.4 0 37.8667 0 46.9334V189.867H256V46.9334Z" fill="#9A7BAA"/>
<path d="M16 173.867V46.9334C16 46.4 16.5333 46.4 16.5333 46.4H238.933C239.467 46.4 239.467 46.9334 239.467 46.9334V173.867H16Z" fill="#92D3FF"/>
<path d="M0 189.867V207.467C0 216.533 7.46667 224 16.5333 224H238.933C248 224 255.467 216.533 255.467 207.467V189.867H0ZM195.2 244.8H60.8C59.2 244.8 58.1333 245.867 58.1333 247.467V253.333C58.1333 254.933 59.2 256 60.8 256H195.2C196.8 256 197.867 254.933 197.867 253.333V247.467C197.867 245.867 196.8 244.8 195.2 244.8Z" fill="#E6E6E6"/>
<path d="M169.067 110.4L163.733 138.133L128 123.733L92.2667 138.133L86.9333 110.4L93.3334 91.2V86.4L93.8667 82.6667L96.5334 80C96.5334 80 98.6667 73.6 102.933 65.6C106.667 58.6667 128 89.6 128 89.6C128 89.6 149.333 58.6667 153.067 65.6C157.867 74.1333 159.467 80 159.467 80L162.133 82.6667L162.667 86.4V91.2L169.067 110.4Z" fill="#E7B95D"/>
<path d="M83.2 113.6H172.8V172.267H83.2V113.6Z" fill="white"/>
<path d="M133.867 132.8L139.2 173.867H116.8L122.133 132.8L116.8 123.2L122.133 113.6H133.867L139.2 123.2L133.867 132.8Z" fill="#515151"/>
<path d="M128 113.6L142.4 133.867L163.733 111.467V100.267L128 113.6Z" fill="#E6E6E6"/>
<path d="M204.8 133.333C194.667 128 177.6 117.867 170.133 102.4L158.4 135.467L152 161.6L154.667 173.867H218.133C218.133 173.867 220.267 169.6 220.8 163.2C221.867 150.933 215.467 139.2 204.8 133.333Z" fill="#515151"/>
<path d="M159.467 80C159.467 80 169.067 127.467 134.4 173.333H165.867C165.867 173.333 188.8 157.333 189.867 132.267C189.867 132.267 178.667 125.867 176.533 118.933C176.533 118.933 189.333 113.6 189.867 104.533C189.867 105.067 174.933 93.3333 159.467 80Z" fill="#666666"/>
<path d="M128 113.6L113.6 133.867L92.2666 111.467V100.267L128 113.6Z" fill="#E6E6E6"/>
<path d="M51.2 133.333C61.3333 128 78.4 117.867 85.8666 102.4L97.6 135.467L104 161.6L101.333 173.867H37.8666C37.8666 173.867 35.7333 169.6 35.2 163.2C34.1333 150.933 40.5333 139.2 51.2 133.333Z" fill="#515151"/>
<path d="M96.5333 80C96.5333 80 86.9333 127.467 121.6 173.333H90.1333C90.1333 173.333 67.2 157.333 66.1333 132.267C66.1333 132.267 77.3333 125.867 79.4666 118.933C79.4666 118.933 66.6666 113.6 66.1333 104.533C66.1333 105.067 81.0666 93.3333 96.5333 80Z" fill="#666666"/>
<path d="M128 15.4667C112 15.4667 99.2 37.8667 99.2 61.3333C99.2 84.8 112 100.267 128 100.267C144 100.267 156.8 84.8 156.8 61.3333C156.8 37.3333 144 15.4667 128 15.4667Z" fill="#FFCC66"/>
<path d="M128 33.6C100.8 33.6 77.8666 35.2 76.7999 41.6C75.7332 48 98.6666 57.0666 128 57.0666C157.333 57.0666 180.267 48 179.2 41.6C178.133 35.2 155.2 33.6 128 33.6Z" fill="#515151"/>
<path d="M149.333 6.4C148.267 2.66667 144.533 0 140.8 0C138.133 0 135.467 1.6 133.333 3.73333C133.333 4.26667 132.8 4.26667 132.8 4.8C130.133 7.46667 125.867 7.46667 123.733 4.8C123.2 4.26667 122.667 4.26667 122.667 3.73333C121.067 1.6 118.4 0 115.2 0C110.933 0 107.733 2.66667 106.667 6.4L98.1333 38.9333C98.1333 48.5333 157.333 48.5333 157.333 38.9333L149.333 6.4Z" fill="#666666"/>
<path d="M220.8 206.4H233.6V211.733H220.8V206.4Z" fill="#54BBFF"/>
<path d="M203.2 206.4H216V211.733H203.2V206.4Z" fill="#88C057"/>
<path d="M186.133 206.4H198.933V211.733H186.133V206.4Z" fill="#FFA769"/>
</g>
<defs>
<clipPath id="clip0_2_2">
<rect width="256" height="256" fill="white"/>
</clipPath>
</defs>
</svg>
