<svg width="256" height="256" viewBox="0 0 256 256" fill="none" xmlns="http://www.w3.org/2000/svg">
<g clip-path="url(#clip0_2_23)">
<g clip-path="url(#clip1_2_23)">
<path d="M14.75 189.25H25.75V212.25H14.75V189.25Z" fill="#E1EBF4"/>
<path d="M179.166 174L178 181.834L240.834 256H256V194L213.166 146.986L179.166 174Z" fill="#FC785E"/>
<path d="M29.158 8.02197H142.3V249.3H29.158V8.02197Z" fill="#81D9E3"/>
<path d="M61 20H45C43.9401 20.0032 42.9245 20.4256 42.1751 21.1751C41.4256 21.9245 41.0032 22.9401 41 24V40C41.0032 41.0599 41.4256 42.0755 42.1751 42.8249C42.9245 43.5744 43.9401 43.9968 45 44H61C62.0599 43.9968 63.0755 43.5744 63.8249 42.8249C64.5744 42.0755 64.9968 41.0599 65 40V24C64.9968 22.9401 64.5744 21.9245 63.8249 21.1751C63.0755 20.4256 62.0599 20.0032 61 20ZM57 36H49V28H57V36Z" fill="#2D4356"/>
<path d="M49 28H57V36H49V28Z" fill="#E1EBF4"/>
<path d="M93 20H77C75.9401 20.0032 74.9245 20.4256 74.1751 21.1751C73.4256 21.9245 73.0032 22.9401 73 24V40C73.0032 41.0599 73.4256 42.0755 74.1751 42.8249C74.9245 43.5744 75.9401 43.9968 77 44H93C94.0599 43.9968 95.0755 43.5744 95.8249 42.8249C96.5744 42.0755 96.9968 41.0599 97 40V24C96.9968 22.9401 96.5744 21.9245 95.8249 21.1751C95.0755 20.4256 94.0599 20.0032 93 20ZM89 36H81V28H89V36Z" fill="#2D4356"/>
<path d="M81 28H89V36H81V28Z" fill="#E1EBF4"/>
<path d="M61 52H45C43.9401 52.0032 42.9245 52.4256 42.1751 53.1751C41.4256 53.9245 41.0032 54.9401 41 56V72C41.0032 73.0599 41.4256 74.0755 42.1751 74.8249C42.9245 75.5744 43.9401 75.9968 45 76H61C62.0599 75.9968 63.0755 75.5744 63.8249 74.8249C64.5744 74.0755 64.9968 73.0599 65 72V56C64.9968 54.9401 64.5744 53.9245 63.8249 53.1751C63.0755 52.4256 62.0599 52.0032 61 52ZM57 68H49V60H57V68Z" fill="#2D4356"/>
<path d="M49 60H57V68H49V60Z" fill="#E1EBF4"/>
<path d="M61 84H45C43.9401 84.0032 42.9245 84.4256 42.1751 85.1751C41.4256 85.9245 41.0032 86.9401 41 88V104C41.0032 105.06 41.4256 106.075 42.1751 106.825C42.9245 107.574 43.9401 107.997 45 108H61C62.0599 107.997 63.0755 107.574 63.8249 106.825C64.5744 106.075 64.9968 105.06 65 104V88C64.9968 86.9401 64.5744 85.9245 63.8249 85.1751C63.0755 84.4256 62.0599 84.0032 61 84ZM57 100H49V92H57V100Z" fill="#2D4356"/>
<path d="M49 92H57V100H49V92Z" fill="#E1EBF4"/>
<path d="M61 116H45C43.9401 116.003 42.9245 116.426 42.1751 117.175C41.4256 117.925 41.0032 118.94 41 120V136C41.0032 137.06 41.4256 138.075 42.1751 138.825C42.9245 139.574 43.9401 139.997 45 140H61C62.0599 139.997 63.0755 139.574 63.8249 138.825C64.5744 138.075 64.9968 137.06 65 136V120C64.9968 118.94 64.5744 117.925 63.8249 117.175C63.0755 116.426 62.0599 116.003 61 116ZM57 132H49V124H57V132Z" fill="#2D4356"/>
<path d="M49 124H57V132H49V124Z" fill="#E1EBF4"/>
<path d="M61 148H45C43.9401 148.003 42.9245 148.426 42.1751 149.175C41.4256 149.925 41.0032 150.94 41 152V168C41.0032 169.06 41.4256 170.075 42.1751 170.825C42.9245 171.574 43.9401 171.997 45 172H61C62.0599 171.997 63.0755 171.574 63.8249 170.825C64.5744 170.075 64.9968 169.06 65 168V152C64.9968 150.94 64.5744 149.925 63.8249 149.175C63.0755 148.426 62.0599 148.003 61 148ZM57 164H49V156H57V164Z" fill="#2D4356"/>
<path d="M49 156H57V164H49V156Z" fill="#E1EBF4"/>
<path d="M93 148H77C75.9401 148.003 74.9245 148.426 74.1751 149.175C73.4256 149.925 73.0032 150.94 73 152V168C73.0032 169.06 73.4256 170.075 74.1751 170.825C74.9245 171.574 75.9401 171.997 77 172H93C94.0599 171.997 95.0755 171.574 95.8249 170.825C96.5744 170.075 96.9968 169.06 97 168V152C96.9968 150.94 96.5744 149.925 95.8249 149.175C95.0755 148.426 94.0599 148.003 93 148ZM89 164H81V156H89V164Z" fill="#2D4356"/>
<path d="M81 156H89V164H81V156Z" fill="#E1EBF4"/>
<path d="M93 180H77C75.9401 180.003 74.9245 180.426 74.1751 181.175C73.4256 181.925 73.0032 182.94 73 184V200C73.0032 201.06 73.4256 202.075 74.1751 202.825C74.9245 203.574 75.9401 203.997 77 204H93C94.0599 203.997 95.0755 203.574 95.8249 202.825C96.5744 202.075 96.9968 201.06 97 200V184C96.9968 182.94 96.5744 181.925 95.8249 181.175C95.0755 180.426 94.0599 180.003 93 180ZM89 196H81V188H89V196Z" fill="#2D4356"/>
<path d="M81 188H89V196H81V188Z" fill="#E1EBF4"/>
<path d="M125 180H109C107.94 180.003 106.925 180.426 106.175 181.175C105.426 181.925 105.003 182.94 105 184V200C105.003 201.06 105.426 202.075 106.175 202.825C106.925 203.574 107.94 203.997 109 204H125C126.06 203.997 127.075 203.574 127.825 202.825C128.574 202.075 128.997 201.06 129 200V184C128.997 182.94 128.574 181.925 127.825 181.175C127.075 180.426 126.06 180.003 125 180ZM121 196H113V188H121V196ZM125 212H77C75.9401 212.003 74.9245 212.426 74.1751 213.175C73.4256 213.925 73.0032 214.94 73 216V232C73.0032 233.06 73.4256 234.075 74.1751 234.825C74.9245 235.574 75.9401 235.997 77 236H125C126.06 235.997 127.075 235.574 127.825 234.825C128.574 234.075 128.997 233.06 129 232V216C128.997 214.94 128.574 213.925 127.825 213.175C127.075 212.426 126.06 212.003 125 212ZM121 228H81V220H121V228Z" fill="#2D4356"/>
<path d="M81 220H121V228H81V220ZM113 188H121V196H113V188Z" fill="#E1EBF4"/>
<path d="M61 180H45C43.9401 180.003 42.9245 180.426 42.1751 181.175C41.4256 181.925 41.0032 182.94 41 184V232C41.0032 233.06 41.4256 234.075 42.1751 234.825C42.9245 235.574 43.9401 235.997 45 236H61C62.0599 235.997 63.0755 235.574 63.8249 234.825C64.5744 234.075 64.9968 233.06 65 232V184C64.9968 182.94 64.5744 181.925 63.8249 181.175C63.0755 180.426 62.0599 180.003 61 180ZM57 228H49V188H57V228Z" fill="#2D4356"/>
<path d="M49 188H57V228H49V188ZM121 28V34.12C119.4 34.7 117.82 35.32 116.26 36H113V28H121ZM86.58 60C85.64 61.3 84.74 62.64 83.9 64C83.06 65.3 82.3 66.64 81.56 68H81V60H86.58Z" fill="#E1EBF4"/>
<path d="M181.44 180.06C181.15 179.752 180.992 179.343 181 178.92C180.995 178.541 181.139 178.175 181.4 177.9L211.26 152.46C211.58 152.165 211.997 151.997 212.432 151.99C212.868 151.982 213.291 152.136 213.62 152.42L238 180.02C238.703 180.816 239.693 181.299 240.753 181.365C241.812 181.431 242.854 181.073 243.65 180.37C244.446 179.667 244.93 178.677 244.995 177.617C245.061 176.558 244.703 175.516 244 174.72L219.52 147.02C217.774 145.184 215.381 144.101 212.85 144C210.318 143.899 207.847 144.789 205.96 146.48L203.88 148.24L196.6 139.84C205.855 127.21 210.157 111.625 208.691 96.0361C207.225 80.4472 200.093 65.9372 188.646 55.2545C177.198 44.5717 162.231 38.458 146.578 38.0714C130.925 37.6848 115.674 43.0521 103.713 53.1567C91.752 63.2613 83.9123 77.4015 81.6785 92.8991C79.4447 108.397 82.972 124.175 91.5922 137.246C100.212 150.318 113.327 159.773 128.452 163.823C143.577 167.873 159.662 166.235 173.66 159.22L181.02 167.72L176.1 171.92C175.169 172.773 174.415 173.803 173.883 174.949C173.352 176.095 173.052 177.335 173.002 178.597C172.952 179.86 173.152 181.12 173.591 182.304C174.03 183.489 174.699 184.575 175.56 185.5C175.56 185.5 238 254.66 238.04 254.68C238.758 255.454 239.749 255.916 240.803 255.968C241.857 256.02 242.889 255.659 243.68 254.96C244.069 254.608 244.386 254.183 244.61 253.71C244.835 253.236 244.964 252.722 244.99 252.198C245.016 251.674 244.939 251.15 244.762 250.656C244.585 250.163 244.313 249.708 243.96 249.32L181.44 180.06ZM145 158C133.924 158 123.097 154.716 113.888 148.562C104.679 142.409 97.5014 133.663 93.2629 123.43C89.0244 113.198 87.9154 101.938 90.0762 91.0749C92.2369 80.212 97.5704 70.2337 105.402 62.402C113.234 54.5702 123.212 49.2368 134.075 47.076C144.938 44.9152 156.198 46.0242 166.43 50.2627C176.663 54.5012 185.409 61.6789 191.562 70.888C197.716 80.0972 201 90.9242 201 102C200.984 116.847 195.079 131.082 184.581 141.58C174.082 152.079 159.847 157.984 145 158ZM180.68 155.12C184.576 152.504 188.172 149.466 191.4 146.06L197.8 153.42L187.1 162.54L180.68 155.12Z" fill="#2D4356"/>
<path d="M201 102C201 113.076 197.716 123.903 191.562 133.112C185.409 142.321 176.663 149.499 166.43 153.737C156.198 157.976 144.938 159.085 134.075 156.924C123.212 154.763 113.234 149.43 105.402 141.598C97.5703 133.766 92.2368 123.788 90.076 112.925C87.9153 102.062 89.0243 90.8024 93.2628 80.5697C97.5013 70.3371 104.679 61.5911 113.888 55.4377C123.097 49.2843 133.924 46 145 46C159.847 46.0159 174.082 51.921 184.58 62.4196C195.079 72.9182 200.984 87.1528 201 102Z" fill="#E1EBF4"/>
<path d="M202.364 178.99C201.566 179.689 201.078 180.676 201.008 181.735C200.938 182.793 201.291 183.836 201.99 184.634L215.99 200.634C216.698 201.417 217.683 201.894 218.736 201.964C219.789 202.034 220.828 201.692 221.634 201.01C222.432 200.311 222.92 199.324 222.991 198.266C223.061 197.207 222.709 196.164 222.01 195.366L208.01 179.366C207.664 178.97 207.244 178.647 206.773 178.414C206.302 178.181 205.789 178.043 205.265 178.008C204.741 177.973 204.215 178.042 203.717 178.21C203.219 178.379 202.759 178.644 202.364 178.99ZM129 31.814V24C128.997 22.9401 128.574 21.9245 127.825 21.1751C127.075 20.4256 126.06 20.0032 125 20H109C107.94 20.0032 106.925 20.4256 106.175 21.1751C105.426 21.9245 105.003 22.9401 105 24V40C105.004 40.6494 105.169 41.2877 105.48 41.858C108.902 39.6015 112.512 37.6417 116.268 36H113V28H121V34.128C123.619 33.2016 126.291 32.4289 129 31.814Z" fill="#2D4356"/>
<path d="M139 173.73V240C138.997 242.121 138.154 244.154 136.654 245.654C135.154 247.154 133.121 247.997 131 248H39C36.8791 247.997 34.8458 247.154 33.3461 245.654C31.8464 244.154 31.0026 242.121 31 240V16C31.0026 13.8791 31.8464 11.8458 33.3461 10.3461C34.8458 8.84635 36.8791 8.00265 39 8H131C133.121 8.00265 135.154 8.84635 136.654 10.3461C138.154 11.8458 138.997 13.8791 139 16V30.27C140.98 30.106 142.978 30 145 30C145.67 30 146.334 30.032 147 30.05V16C146.987 11.7604 145.298 7.69812 142.3 4.70028C139.302 1.70244 135.24 0.0126618 131 0L39 0C34.7603 0.012137 30.6977 1.70174 27.6997 4.6997C24.7017 7.69765 23.0121 11.7603 23 16V184H19C16.8789 184.002 14.8453 184.846 13.3455 186.345C11.8457 187.845 11.0021 189.879 11 192V208C11.0021 210.121 11.8457 212.155 13.3455 213.655C14.8453 215.154 16.8789 215.998 19 216H23V240C23.0127 244.24 24.7024 248.302 27.7003 251.3C30.6981 254.298 34.7604 255.987 39 256H131C135.24 255.987 139.302 254.298 142.3 251.3C145.298 248.302 146.987 244.24 147 240V173.95C146.334 173.968 145.67 174 145 174C142.978 174 140.98 173.894 139 173.73ZM19 208V192H23V208H19Z" fill="#2D4356"/>
<path opacity="0.4" d="M139 16V20C139 18.9494 138.794 17.9089 138.392 16.9382C137.99 15.9675 137.4 15.0855 136.657 14.3426C135.915 13.5996 135.033 13.0104 134.062 12.6084C133.091 12.2065 132.051 11.9997 131 12H39C37.9494 11.9997 36.9089 12.2065 35.9382 12.6084C34.9675 13.0104 34.0855 13.5996 33.3426 14.3426C32.5996 15.0855 32.0104 15.9675 31.6084 16.9382C31.2065 17.9089 30.9997 18.9494 31 20V16C30.9997 14.9494 31.2065 13.9089 31.6084 12.9382C32.0104 11.9675 32.5996 11.0855 33.3426 10.3426C34.0855 9.59964 34.9675 9.01037 35.9382 8.60843C36.9089 8.20648 37.9494 7.99974 39 8H131C132.051 7.99974 133.091 8.20648 134.062 8.60843C135.033 9.01037 135.915 9.59964 136.657 10.3426C137.4 11.0855 137.99 11.9675 138.392 12.9382C138.794 13.9089 139 14.9494 139 16Z" fill="#E8FBFC"/>
<path opacity="0.5" d="M201 102C201 102.68 200.98 103.34 200.94 104C200.434 89.5013 194.319 75.7653 183.884 65.6873C173.448 55.6093 159.507 49.9767 145 49.9767C130.493 49.9767 116.552 55.6093 106.116 65.6873C95.6806 75.7653 89.5656 89.5013 89.06 104C89.02 103.34 89 102.68 89 102C89 87.1479 94.9 72.9041 105.402 62.402C115.904 51.9 130.148 46 145 46C159.852 46 174.096 51.9 184.598 62.402C195.1 72.9041 201 87.1479 201 102Z" fill="white"/>
<path opacity="0.5" d="M201 102C201 116.852 195.1 131.096 184.598 141.598C174.096 152.1 159.852 158 145 158C130.148 158 115.904 152.1 105.402 141.598C94.9 131.096 89 116.852 89 102C89 101.32 89.02 100.66 89.06 100C89.5656 114.499 95.6806 128.235 106.116 138.313C116.552 148.391 130.493 154.023 145 154.023C159.507 154.023 173.448 148.391 183.884 138.313C194.319 128.235 200.434 114.499 200.94 100C200.98 100.66 201 101.32 201 102ZM19 204H23V208H19V204Z" fill="#9FA5AA"/>
<path opacity="0.3" d="M139 236V240C139 241.051 138.794 242.091 138.392 243.062C137.99 244.033 137.4 244.915 136.657 245.657C135.915 246.4 135.033 246.99 134.062 247.392C133.091 247.794 132.051 248 131 248H39C37.9494 248 36.9089 247.794 35.9382 247.392C34.9675 246.99 34.0855 246.4 33.3426 245.657C32.5996 244.915 32.0104 244.033 31.6084 243.062C31.2065 242.091 30.9997 241.051 31 240V236C30.9997 237.051 31.2065 238.091 31.6084 239.062C32.0104 240.033 32.5996 240.915 33.3426 241.657C34.0855 242.4 34.9675 242.99 35.9382 243.392C36.9089 243.794 37.9494 244 39 244H131C132.051 244 133.091 243.794 134.062 243.392C135.033 242.99 135.915 242.4 136.657 241.657C137.4 240.915 137.99 240.033 138.392 239.062C138.794 238.091 139 237.051 139 236Z" fill="#426666"/>
<path opacity="0.5" d="M143 62C141.939 62 140.922 62.4214 140.172 63.1716C139.421 63.9217 139 64.9391 139 66C139 67.0609 139.421 68.0783 140.172 68.8284C140.922 69.5786 141.939 70 143 70C151.484 70.0095 159.618 73.384 165.617 79.3831C171.616 85.3822 174.99 93.516 175 102C175 103.061 175.421 104.078 176.172 104.828C176.922 105.579 177.939 106 179 106C180.061 106 181.078 105.579 181.828 104.828C182.579 104.078 183 103.061 183 102C182.988 91.3951 178.77 81.228 171.271 73.7292C163.772 66.2304 153.605 62.0122 143 62Z" fill="#9FA5AA"/>
<path d="M86.574 60C88.603 57.1853 90.8314 54.5198 93.242 52.024C93.16 52.02 93.08 52 93 52H77C75.9401 52.0032 74.9245 52.4256 74.1751 53.1751C73.4256 53.9245 73.0032 54.9401 73 56V72C73.0032 73.0599 73.4256 74.0755 74.1751 74.8249C74.9245 75.5744 75.9401 75.9968 77 76H77.878C78.9383 73.2605 80.1659 70.5888 81.554 68H81V60H86.574ZM73 120V136C73.0032 137.06 73.4256 138.075 74.1751 138.825C74.9245 139.574 75.9401 139.997 77 140H83.884C79.4425 132.894 76.2839 125.063 74.552 116.864C74.0717 117.234 73.6823 117.709 73.4133 118.253C73.1443 118.796 73.003 119.394 73 120ZM109 172H125C125.574 171.998 126.14 171.87 126.66 171.626C118.945 169.59 111.625 166.281 105 161.834V168C105.003 169.06 105.426 170.075 106.175 170.825C106.925 171.574 107.94 171.997 109 172Z" fill="#2D4356"/>
<path opacity="0.5" d="M245.68 252.96C245.39 253.235 245.051 253.452 244.68 253.6C244.981 252.892 245.073 252.113 244.945 251.355C244.817 250.597 244.476 249.89 243.96 249.32L181.44 180.06C181.15 179.752 180.992 179.343 181 178.92C180.995 178.541 181.138 178.175 181.4 177.9L183.06 176.48C183.023 176.624 183.003 176.771 183 176.92C182.992 177.343 183.15 177.752 183.44 178.06L245.96 247.32C246.313 247.708 246.585 248.163 246.762 248.656C246.939 249.15 247.016 249.674 246.99 250.198C246.964 250.722 246.835 251.236 246.61 251.71C246.385 252.183 246.069 252.608 245.68 252.96Z" fill="#A54B3F"/>
<path opacity="0.5" d="M49 32H57V36H49V32ZM81 32H89V36H81V32ZM49 64H57V68H49V64ZM83.9 64C83.06 65.3 82.3 66.64 81.56 68H81V64H83.9ZM49 96H57V100H49V96ZM49 128H57V132H49V128ZM49 160H57V164H49V160ZM81 160H89V164H81V160ZM49 224H57V228H49V224ZM81 192H89V196H81V192ZM113 192H121V196H113V192ZM81 224H121V228H81V224ZM121 32V34.12C119.4 34.7 117.82 35.32 116.26 36H113V32H121Z" fill="#9FA5AA"/>
<path d="M143 58C141.939 58 140.922 58.4214 140.172 59.1716C139.421 59.9217 139 60.9391 139 62C139 63.0609 139.421 64.0783 140.172 64.8284C140.922 65.5786 141.939 66 143 66C151.484 66.0095 159.618 69.384 165.617 75.3831C171.616 81.3822 174.99 89.516 175 98C175 99.0609 175.421 100.078 176.172 100.828C176.922 101.579 177.939 102 179 102C180.061 102 181.078 101.579 181.828 100.828C182.579 100.078 183 99.0609 183 98C182.988 87.3951 178.77 77.228 171.271 69.7292C163.772 62.2304 153.605 58.0122 143 58Z" fill="#2D4356"/>
</g>
</g>
<defs>
<clipPath id="clip0_2_23">
<rect width="256" height="256" fill="white"/>
</clipPath>
<clipPath id="clip1_2_23">
<rect width="256" height="256" fill="white"/>
</clipPath>
</defs>
</svg>
