<svg width="256" height="256" viewBox="0 0 256 256" fill="none" xmlns="http://www.w3.org/2000/svg">
<g clip-path="url(#clip0_2_319)">
<path d="M230.952 70.3038C234.914 66.332 237.763 61.3887 239.212 55.9688C240.661 50.5489 240.66 44.8431 239.208 39.4239L219.672 58.9434L202.704 53.296L197.048 36.3272L216.576 16.792C211.158 15.3395 205.452 15.3366 200.033 16.7842C194.613 18.2319 189.669 21.0792 185.696 25.0401C177.344 33.4001 174.704 45.1919 177.52 55.8399L55.848 177.52C45.2 174.704 33.4001 177.343 25.0481 185.695C21.0857 189.667 18.2372 194.611 16.7882 200.031C15.3392 205.451 15.3405 211.156 16.7921 216.575L36.3281 197.04L53.296 202.695L58.9521 219.672L39.4241 239.199C44.8423 240.656 50.5486 240.661 55.9692 239.213C61.3898 237.765 66.3338 234.916 70.3041 230.951C78.6561 222.599 81.2961 210.799 78.4801 200.151L200.152 78.4717C210.808 81.2877 222.6 78.6558 230.952 70.3038Z" fill="#34485C"/>
<path d="M113.664 34.3998V53.1195C105.411 54.9789 97.5295 58.2164 90.3521 62.6957L77.1841 49.5277L53.5281 73.184L66.7281 86.3676C62.2281 93.5358 58.9691 101.412 57.0881 109.664H38.4001V143.136H57.1201C58.9795 151.39 62.2169 159.27 66.6961 166.448L53.5281 179.616L77.1841 203.272L90.3681 190.072C97.5364 194.572 105.412 197.831 113.664 199.712V218.4H147.136V199.68C155.39 197.821 163.271 194.583 170.448 190.104L183.616 203.272L207.272 179.616L194.072 166.432C198.572 159.264 201.831 151.388 203.712 143.136H222.4V109.664H203.68C201.821 101.411 198.583 93.5293 194.104 86.3519L201.68 78.7758C201.176 78.6638 200.656 78.6079 200.152 78.4799L177.824 100.8C182.083 108.662 184.321 117.459 184.336 126.4C184.337 133.483 182.943 140.497 180.233 147.041C177.522 153.586 173.55 159.532 168.541 164.54C163.532 169.549 157.586 173.523 151.042 176.233C144.498 178.943 137.483 180.337 130.4 180.336C123.317 180.337 116.303 178.943 109.758 176.233C103.214 173.523 97.2679 169.549 92.2593 164.54C87.2507 159.532 83.2778 153.586 80.5676 147.041C77.8575 140.497 76.4631 133.483 76.4641 126.4C76.4631 119.317 77.8575 112.302 80.5676 105.758C83.2778 99.2139 87.2507 93.2678 92.2593 88.2592C97.2679 83.2505 103.214 79.2779 109.758 76.5677C116.303 73.8576 123.317 72.4632 130.4 72.4642C138.933 72.485 147.339 74.5302 154.928 78.432L177.528 55.8558L177.496 55.6722L170.432 62.7357C163.264 58.2329 155.389 54.9716 147.136 53.0883V34.4076L113.664 34.3998Z" fill="#4BBFEB"/>
</g>
<defs>
<clipPath id="clip0_2_319">
<rect width="256" height="256" fill="white"/>
</clipPath>
</defs>
</svg>
