<svg width="256" height="256" viewBox="0 0 256 256" fill="none" xmlns="http://www.w3.org/2000/svg">
<g clip-path="url(#clip0_2_73)">
<path d="M205.852 114.505H195.179C193.047 114.505 191.153 113.094 190.596 111.036C189.134 105.626 186.989 100.497 184.259 95.7455C183.195 93.8936 183.531 91.5541 185.041 90.0438C188.136 86.9484 190.703 84.3823 192.592 82.4929C194.453 80.6323 194.452 77.616 192.592 75.7555L180.245 63.4083C178.384 61.5477 175.368 61.5474 173.507 63.408C171.618 65.2974 169.052 67.8636 165.956 70.9589C164.446 72.4692 162.107 72.8052 160.255 71.7411C155.504 69.0113 150.374 66.8664 144.964 65.4038C142.906 64.8474 141.495 62.9527 141.495 60.8205V50.1485C141.495 47.5173 139.362 45.3842 136.731 45.3842H119.269C116.638 45.3842 114.505 47.5172 114.505 50.1485V60.8206C114.505 62.9528 113.094 64.8474 111.036 65.4039C105.626 66.8665 100.496 69.0115 95.7452 71.7413C93.8932 72.8053 91.5538 72.4693 90.0435 70.959L82.4928 63.4083C80.6322 61.5477 77.6157 61.5477 75.7551 63.4083L63.408 75.7554C61.5475 77.616 61.5474 80.6325 63.408 82.493C65.2983 84.3833 67.8643 86.9493 70.9587 90.0437C72.469 91.554 72.8051 93.8935 71.741 95.7455C69.0112 100.497 66.8663 105.626 65.4036 111.036C64.8472 113.094 62.9525 114.505 60.8204 114.505H50.1483C47.5171 114.505 45.384 116.638 45.384 119.269V136.731C45.384 139.362 47.517 141.495 50.1483 141.495H60.8204C62.9525 141.495 64.8472 142.906 65.4036 144.964C66.8663 150.374 69.0112 155.504 71.741 160.255C72.8051 162.107 72.4691 164.446 70.9588 165.956L63.4081 173.507C61.5476 175.368 61.5476 178.384 63.4081 180.245L75.7552 192.592C77.6158 194.452 80.6323 194.453 82.4928 192.592C84.3831 190.702 86.9491 188.136 90.0435 185.041C91.5538 183.531 93.8933 183.195 95.7453 184.259C100.496 186.989 105.626 189.134 111.036 190.596C113.094 191.153 114.505 193.047 114.505 195.18V205.852C114.505 208.483 116.638 210.616 119.269 210.616H136.731C139.362 210.616 141.495 208.483 141.495 205.852V195.18C141.495 193.047 142.906 191.153 144.964 190.596C150.374 189.134 155.504 186.989 160.255 184.259C162.107 183.195 164.446 183.531 165.956 185.041C169.052 188.137 171.618 190.703 173.507 192.592C175.368 194.453 178.384 194.452 180.245 192.592L192.592 180.245C194.452 178.384 194.453 175.368 192.592 173.507C190.703 171.618 188.136 169.052 185.041 165.956C183.531 164.446 183.195 162.106 184.259 160.255C186.989 155.503 189.134 150.374 190.596 144.964C191.153 142.906 193.047 141.495 195.179 141.495H205.852C208.483 141.495 210.616 139.362 210.616 136.731V119.269C210.616 116.638 208.483 114.505 205.852 114.505Z" fill="#FCA265"/>
<path d="M49.8253 49.8246C55.466 44.1838 55.4658 35.0383 49.825 29.3977C44.1842 23.7571 35.0387 23.7572 29.3981 29.3981C23.7575 35.0389 23.7576 44.1843 29.3984 49.825C35.0393 55.4656 44.1847 55.4654 49.8253 49.8246Z" fill="#70D6F9"/>
<path d="M226.599 226.602C232.239 220.961 232.239 211.815 226.598 206.175C220.957 200.534 211.812 200.534 206.171 206.175C200.531 211.816 200.531 220.961 206.172 226.602C211.812 232.243 220.958 232.243 226.599 226.602Z" fill="#70D6F9"/>
<path d="M226.6 49.8266C232.241 44.1857 232.241 35.0403 226.6 29.3997C220.959 23.759 211.814 23.7592 206.173 29.4C200.533 35.0409 200.533 44.1863 206.174 49.8269C211.814 55.4676 220.96 55.4674 226.6 49.8266Z" fill="#70D6F9"/>
<path d="M49.8236 226.6C55.4643 220.96 55.4641 211.814 49.8233 206.174C44.1824 200.533 35.037 200.533 29.3964 206.174C23.7557 211.815 23.7559 220.96 29.3967 226.601C35.0376 232.241 44.183 232.241 49.8236 226.6Z" fill="#70D6F9"/>
<path d="M128 85.0938C104.304 85.0938 85.0939 104.303 85.0939 128C85.0939 151.696 104.304 170.906 128 170.906C151.696 170.906 170.906 151.696 170.906 128C170.906 104.304 151.697 85.0938 128 85.0938ZM12.775 96.1999C9.675 95.5999 7.175 93.1999 6.575 90.0999C6.575 89.9999 6.275 89.9999 6.275 90.0999C5.675 93.1999 3.175 95.5999 0.075 96.1999C-0.025 96.1999 -0.025 96.3999 0.075 96.4999C3.175 97.0999 5.675 99.4999 6.275 102.6C6.275 102.7 6.575 102.7 6.575 102.6C7.175 99.4999 9.675 97.0999 12.775 96.4999C12.875 96.3999 12.875 96.1999 12.775 96.1999Z" fill="#F5C84C"/>
<path d="M11.0131 175.5H13.3131V177.8C13.3131 179.6 14.7131 181 16.5131 181C18.2131 181 19.7131 179.6 19.7131 177.9V177.8V175.5H22.0131C23.8131 175.5 25.2131 174.1 25.2131 172.3C25.2131 170.6 23.8131 169.1 22.1131 169.1H22.0131H19.7131V166.8C19.7131 165 18.3131 163.6 16.5131 163.6C14.8131 163.6 13.3131 165 13.3131 166.7V166.8V169.1H11.0131C9.21314 169.1 7.81314 170.5 7.81314 172.3C7.71314 174 9.11314 175.5 11.0131 175.5C10.9131 175.5 10.9131 175.5 11.0131 175.5Z" fill="#FC657E"/>
<path d="M252.6 162.3C254.478 162.3 256 160.778 256 158.9C256 157.022 254.478 155.5 252.6 155.5C250.722 155.5 249.2 157.022 249.2 158.9C249.2 160.778 250.722 162.3 252.6 162.3Z" fill="#70D6F9"/>
<path d="M95.4129 28.8C97.2907 28.8 98.8129 27.2778 98.8129 25.4C98.8129 23.5222 97.2907 22 95.4129 22C93.5352 22 92.0129 23.5222 92.0129 25.4C92.0129 27.2778 93.5352 28.8 95.4129 28.8Z" fill="#87D147"/>
<path d="M221.813 87.2C226.313 86.4 229.813 82.9 230.713 78.5C230.713 78.3 231.113 78.3 231.113 78.5C232.013 82.9 235.513 86.4 240.013 87.2C240.213 87.2 240.213 87.5 240.013 87.6C235.513 88.4 232.013 91.9 231.113 96.3C231.113 96.5 230.713 96.5 230.713 96.3C229.813 91.9 226.313 88.4 221.813 87.6C221.613 87.5 221.613 87.2 221.813 87.2Z" fill="#F5C84C"/>
<path d="M136.73 213.116H119.269C115.264 213.116 112.005 209.857 112.005 205.852V195.18C112.005 194.16 111.338 193.268 110.383 193.009C104.837 191.51 99.4926 189.295 94.4999 186.426C93.6386 185.932 92.5321 186.089 91.8109 186.809L84.2606 194.359C81.4291 197.192 76.8202 197.193 73.9877 194.359L61.6405 182.012C58.8085 179.18 58.808 174.572 61.64 171.739L69.1913 164.188C69.9115 163.468 70.0687 162.362 69.5731 161.499C66.7044 156.507 64.4896 151.163 62.9901 145.616C62.7323 144.662 61.8397 143.995 60.8202 143.995H50.1484C46.143 143.995 42.8842 140.736 42.8842 136.731V119.269C42.8842 115.264 46.143 112.005 50.1484 112.005H60.8203C61.8398 112.005 62.7324 111.338 62.9907 110.383C64.4897 104.837 66.7046 99.4926 69.5737 94.4999C70.0688 93.6376 69.9116 92.5316 69.1914 91.8109L61.6406 84.2606C58.8081 81.4286 58.8081 76.8197 61.6406 73.9877L73.9878 61.6405C75.3594 60.2684 77.1836 59.5126 79.124 59.5126C81.0644 59.5126 82.8886 60.268 84.2607 61.6405L91.8115 69.1913C92.5337 69.9125 93.6386 70.0697 94.5005 69.5731C99.4927 66.7044 104.837 64.4896 110.384 62.9901C111.338 62.7323 112.005 61.8397 112.005 60.8202V50.1484C112.005 46.143 115.264 42.8842 119.269 42.8842H136.73C140.736 42.8842 143.995 46.143 143.995 50.1484V60.8203C143.995 61.8398 144.662 62.7324 145.617 62.9907C151.164 64.4897 156.508 66.7051 161.5 69.5737C162.362 70.0669 163.468 69.9121 164.189 69.1914L171.738 61.6406C174.572 58.8086 179.181 58.8081 182.013 61.6401L194.359 73.9878C195.732 75.3594 196.487 77.1836 196.487 79.1235C196.487 81.0644 195.731 82.8891 194.359 84.2607L186.809 91.8115C186.088 92.5322 185.931 93.6377 186.427 94.5C189.296 99.4941 191.511 104.838 193.01 110.384C193.268 111.338 194.16 112.005 195.18 112.005H205.852C209.857 112.005 213.116 115.264 213.116 119.269V136.731C213.116 140.736 209.857 143.995 205.852 143.995H195.18C194.16 143.995 193.268 144.662 193.011 145.616C191.511 151.162 189.296 156.506 186.427 161.5C185.931 162.362 186.088 163.468 186.809 164.189L194.36 171.74C195.731 173.111 196.487 174.936 196.487 176.877C196.487 178.817 195.731 180.641 194.359 182.012L182.013 194.36C179.182 197.192 174.572 197.192 171.739 194.361L164.189 186.809C163.468 186.088 162.363 185.932 161.5 186.426C156.508 189.295 151.164 191.51 145.616 193.01C144.662 193.268 143.995 194.16 143.995 195.18V205.852C143.995 209.857 140.736 213.116 136.73 213.116ZM93.4219 181.141C94.648 181.141 95.8789 181.452 96.9907 182.091C101.611 184.746 106.556 186.795 111.688 188.183C114.819 189.029 117.005 191.907 117.005 195.18V205.852C117.005 207.1 118.02 208.116 119.269 208.116H136.73C137.979 208.116 138.995 207.1 138.995 205.852V195.18C138.995 191.907 141.181 189.03 144.31 188.183C149.444 186.795 154.39 184.746 159.01 182.091C161.825 180.471 165.41 180.96 167.724 183.273L175.275 190.825C176.157 191.707 177.596 191.706 178.477 190.824L190.824 178.477C191.252 178.049 191.487 177.48 191.487 176.876C191.487 176.271 191.252 175.703 190.824 175.275L183.273 167.725C180.959 165.409 180.473 161.825 182.091 159.009C184.746 154.388 186.796 149.442 188.184 144.311C189.028 141.182 191.905 138.995 195.18 138.995H205.852C207.101 138.995 208.116 137.979 208.116 136.731V119.269C208.116 118.021 207.101 117.005 205.852 117.005H195.18C191.905 117.005 189.028 114.818 188.183 111.688C186.796 106.558 184.746 101.612 182.091 96.9911C180.473 94.1752 180.959 90.5912 183.273 88.2758L190.823 80.7255C191.252 80.2968 191.487 79.7289 191.487 79.1239C191.487 78.5194 191.252 77.9506 190.824 77.5228L178.477 65.1756C177.595 64.2928 176.157 64.2928 175.274 65.1756L167.724 72.7264C165.41 75.0409 161.825 75.5277 159.01 73.9085C154.39 71.2542 149.444 69.2044 144.311 67.8172C141.181 66.97 138.995 64.0931 138.995 60.8201V50.1484C138.995 48.8999 137.979 47.8842 136.73 47.8842H119.269C118.02 47.8842 117.005 48.8998 117.005 50.1484V60.8203C117.005 64.0932 114.819 66.9707 111.689 67.8169C106.556 69.2046 101.611 71.2539 96.9911 73.9087C94.1742 75.5274 90.5897 75.0405 88.2763 72.7266L80.7255 65.1758C79.8695 64.3208 78.3783 64.3198 77.5234 65.1758L65.1758 77.5229C64.293 78.4057 64.293 79.8422 65.1758 80.7255L72.7266 88.2753C75.0411 90.5898 75.5274 94.1737 73.9092 96.9906C71.2539 101.611 69.2046 106.556 67.8174 111.688C66.9707 114.819 64.0933 117.005 60.8203 117.005H50.1484C48.8999 117.005 47.8842 118.02 47.8842 119.269V136.731C47.8842 137.979 48.8998 138.995 50.1484 138.995H60.8203C64.0932 138.995 66.9707 141.181 67.8169 144.311C69.2046 149.444 71.2539 154.389 73.9087 159.009C75.5274 161.826 75.041 165.41 72.7266 167.724L65.1758 175.274C64.2935 176.158 64.293 177.594 65.1758 178.477L77.523 190.824C78.4058 191.708 79.8428 191.707 80.7256 190.824L88.2754 183.273C89.6763 181.873 91.5425 181.141 93.4219 181.141ZM39.6113 56.5562C35.0854 56.5562 30.8305 54.7935 27.6299 51.5928C24.4297 48.3926 22.667 44.1377 22.667 39.6114C22.667 35.0855 24.4297 30.8306 27.6304 27.63C30.8306 24.4298 35.0855 22.6671 39.6114 22.6671C44.1378 22.6671 48.3926 24.4298 51.5933 27.6305C54.7935 30.8307 56.5562 35.0856 56.5562 39.6115C56.5562 44.1379 54.7935 48.3927 51.5928 51.5934C48.3926 54.7935 44.1377 56.5562 39.6113 56.5562ZM39.6113 27.667C36.4209 27.667 33.4218 28.9097 31.166 31.1655C28.9097 33.4218 27.667 36.4209 27.667 39.6113C27.667 42.8022 28.9097 45.8012 31.1655 48.0571C33.4218 50.3134 36.4209 51.5561 39.6113 51.5561C42.8022 51.5561 45.8012 50.3134 48.0571 48.0576C50.3134 45.8013 51.5561 42.8022 51.5561 39.6113C51.5561 36.4209 50.3134 33.4218 48.0576 31.166C45.8018 28.9102 42.8022 27.667 39.6113 27.667Z" fill="black"/>
<path d="M69.0743 71.5742C68.4347 71.5742 67.7945 71.3301 67.3067 70.8418L48.4507 51.9858C47.4741 51.0097 47.4741 49.4267 48.4507 48.4506C49.4263 47.474 51.0103 47.474 51.9859 48.4506L70.8419 67.3066C71.8185 68.2827 71.8185 69.8657 70.8419 70.8418C70.3541 71.3301 69.714 71.5742 69.0743 71.5742ZM216.389 233.333C211.862 233.333 207.608 231.57 204.407 228.37C201.206 225.17 199.444 220.914 199.444 216.389C199.444 211.862 201.206 207.607 204.407 204.407C207.608 201.206 211.863 199.444 216.389 199.444C220.914 199.444 225.17 201.206 228.37 204.407C234.977 211.013 234.977 221.763 228.37 228.37C225.17 231.57 220.914 233.333 216.389 233.333ZM216.389 204.444C213.198 204.444 210.198 205.686 207.943 207.942C205.687 210.199 204.444 213.198 204.444 216.389C204.444 219.579 205.687 222.578 207.943 224.834C210.198 227.09 213.198 228.333 216.389 228.333C219.579 228.333 222.578 227.09 224.835 224.834C227.091 222.578 228.333 219.579 228.333 216.389C228.333 213.198 227.091 210.198 224.835 207.942C222.578 205.686 219.579 204.444 216.389 204.444Z" fill="black"/>
<path d="M205.781 208.282C205.142 208.282 204.502 208.038 204.014 207.549L185.158 188.693C184.182 187.717 184.182 186.134 185.158 185.158C186.135 184.182 187.717 184.182 188.693 185.158L207.549 204.014C208.525 204.99 208.525 206.573 207.549 207.549C207.061 208.038 206.421 208.282 205.781 208.282ZM216.389 56.5562C211.862 56.5562 207.608 54.7935 204.407 51.5928C201.206 48.3931 199.443 44.1377 199.443 39.6114C199.443 35.0855 201.206 30.8302 204.407 27.63C207.608 24.4298 211.862 22.6671 216.389 22.6671C220.914 22.6671 225.17 24.4298 228.37 27.63C234.977 34.2369 234.977 44.9864 228.37 51.5929C225.17 54.7935 220.914 56.5562 216.389 56.5562ZM216.389 27.667C213.198 27.667 210.198 28.9097 207.942 31.1655C205.687 33.4214 204.443 36.4209 204.443 39.6113C204.443 42.8022 205.687 45.8012 207.942 48.0571C210.198 50.3134 213.198 51.5561 216.389 51.5561C219.579 51.5561 222.578 50.3134 224.835 48.0571C227.091 45.8017 228.333 42.8022 228.333 39.6113C228.333 36.4209 227.091 33.4214 224.835 31.1655C222.578 28.9097 219.579 27.667 216.389 27.667Z" fill="black"/>
<path d="M186.926 71.5742C186.286 71.5742 185.647 71.3301 185.158 70.8418C184.182 69.8657 184.182 68.2827 185.158 67.3066L204.014 48.4506C204.99 47.474 206.572 47.474 207.549 48.4506C208.525 49.4267 208.525 51.0097 207.549 51.9858L188.693 70.8418C188.205 71.3301 187.565 71.5742 186.926 71.5742ZM39.6113 233.333C35.0854 233.333 30.8305 231.57 27.6299 228.37C24.4297 225.169 22.667 220.914 22.667 216.389C22.667 211.862 24.4297 207.607 27.6304 204.407C30.8306 201.206 35.0855 199.444 39.6114 199.444C44.1378 199.444 48.3926 201.206 51.5933 204.407C54.7935 207.607 56.5562 211.862 56.5562 216.389C56.5562 220.914 54.7935 225.169 51.5928 228.37C48.3926 231.57 44.1377 233.333 39.6113 233.333ZM39.6113 204.444C36.4209 204.444 33.4218 205.686 31.166 207.942C28.9101 210.198 27.667 213.198 27.667 216.389C27.667 219.579 28.9097 222.578 31.1655 224.834C33.4218 227.09 36.4209 228.333 39.6113 228.333C42.8022 228.333 45.8012 227.09 48.0571 224.834C50.3134 222.578 51.5561 219.579 51.5561 216.389C51.5561 213.198 50.3134 210.199 48.0576 207.943C45.8013 205.686 42.8022 204.444 39.6113 204.444Z" fill="black"/>
<path d="M50.2183 208.282C49.5787 208.282 48.9385 208.038 48.4507 207.549C47.4741 206.573 47.4741 204.99 48.4507 204.014L67.3067 185.158C68.2823 184.181 69.8663 184.181 70.8419 185.158C71.8185 186.134 71.8185 187.717 70.8419 188.693L51.9859 207.549C51.498 208.038 50.8579 208.282 50.2183 208.282ZM89.0513 148.522C88.107 148.522 87.2032 147.985 86.7808 147.071C78.8228 129.868 82.4849 109.3 95.8926 95.8925C109.301 82.4843 129.868 78.8237 147.071 86.7807C148.324 87.3603 148.87 88.8461 148.29 90.0995C147.711 91.3515 146.228 91.8998 144.972 91.3187C129.662 84.2372 111.36 87.4964 99.4278 99.4276C87.4962 111.36 84.2374 129.663 91.3189 144.973C91.8985 146.225 91.3526 147.711 90.0992 148.291C89.7598 148.448 89.4028 148.522 89.0513 148.522Z" fill="black"/>
<path d="M139.072 97.8828C138.132 97.8828 137.231 97.3501 136.807 96.4429C136.221 95.1924 136.76 93.7041 138.01 93.1182L146.555 89.1167L142.553 80.5728C141.967 79.3223 142.506 77.834 143.756 77.2481C145.009 76.6641 146.495 77.2032 147.08 78.4517L152.142 89.2598C152.424 89.8604 152.455 90.5479 152.229 91.1714C152.004 91.7949 151.54 92.3032 150.939 92.5845L140.131 97.6465C139.788 97.8071 139.427 97.8828 139.072 97.8828ZM127.912 173.385C121.473 173.385 114.993 172.024 108.929 169.219C107.675 168.64 107.129 167.154 107.709 165.901C108.289 164.647 109.775 164.103 111.027 164.681C126.338 171.763 144.642 168.503 156.572 156.572C168.504 144.64 171.763 126.336 164.682 111.028C164.102 109.774 164.647 108.289 165.9 107.709C167.156 107.129 168.641 107.677 169.219 108.928C177.177 126.132 173.516 146.699 160.108 160.107C151.426 168.79 139.741 173.385 127.912 173.385Z" fill="black"/>
<path d="M111.185 178.988C110.245 178.988 109.345 178.456 108.92 177.548L103.858 166.74C103.272 165.49 103.811 164.001 105.061 163.416L115.869 158.354C117.118 157.77 118.607 158.306 119.194 159.557C119.779 160.808 119.24 162.296 117.99 162.882L109.446 166.883L113.448 175.427C114.033 176.678 113.494 178.166 112.244 178.752C111.901 178.912 111.541 178.988 111.185 178.988ZM115.033 145.766H109.699C104.645 145.766 100.532 141.654 100.532 136.599V119.401C100.532 114.346 104.645 110.234 109.699 110.234H115.033C120.087 110.234 124.2 114.346 124.2 119.401V136.599C124.2 141.654 120.087 145.766 115.033 145.766ZM109.699 115.234C107.401 115.234 105.532 117.103 105.532 119.401V136.599C105.532 138.897 107.401 140.766 109.699 140.766H115.033C117.331 140.766 119.2 138.897 119.2 136.599V119.401C119.2 117.103 117.331 115.234 115.033 115.234H109.699ZM144.079 145.766H138.745C133.69 145.766 129.578 141.654 129.578 136.599C129.578 135.218 130.697 134.099 132.078 134.099C133.459 134.099 134.578 135.218 134.578 136.599C134.578 138.897 136.447 140.766 138.745 140.766H144.079C146.377 140.766 148.246 138.897 148.246 136.599V132.735C148.246 130.437 146.377 128.568 144.079 128.568H138.745C133.69 128.568 129.578 124.455 129.578 119.401C129.578 114.346 133.69 110.234 138.745 110.234H144.079C149.134 110.234 153.246 114.346 153.246 119.401C153.246 120.782 152.127 121.901 150.746 121.901C149.365 121.901 148.246 120.782 148.246 119.401C148.246 117.103 146.377 115.234 144.079 115.234H138.745C136.447 115.234 134.578 117.103 134.578 119.401C134.578 121.699 136.447 123.568 138.745 123.568H144.079C149.134 123.568 153.246 127.68 153.246 132.735V136.599C153.246 141.654 149.134 145.766 144.079 145.766Z" fill="black"/>
</g>
<defs>
<clipPath id="clip0_2_73">
<rect width="256" height="256" fill="white"/>
</clipPath>
</defs>
</svg>
