<svg width="256" height="256" viewBox="0 0 256 256" fill="none" xmlns="http://www.w3.org/2000/svg">
<g clip-path="url(#clip0_2_300)">
<path d="M196.267 37.8667C196.267 34.6667 193.6 32.0001 189.867 31.4667C149.333 25.6001 113.067 6.93339 101.867 1.06672C99.7332 5.69741e-05 97.0666 5.69741e-05 94.9332 1.06672C83.7332 6.93339 46.9332 26.1334 6.93322 31.4667C3.73322 32.0001 1.06655 34.6667 0.533219 37.8667C-1.60011 67.7334 -4.26678 204.8 94.9332 254.933C97.0666 256 99.1999 256 101.333 254.933C201.067 204.8 198.4 68.2667 196.267 37.8667Z" fill="#ED7161"/>
<path d="M181.333 45.8667C179.2 45.3333 177.6 45.3333 175.467 44.8C170.667 43.7333 166.4 42.6667 162.133 41.0667C156.8 39.4667 152 38.4 147.2 36.8C145.067 36.2667 143.467 35.7333 141.867 35.2C137.6 33.6 133.333 32 129.6 30.4C128.533 29.8667 127.467 29.3333 126.4 29.3333C122.667 27.7333 118.933 26.1333 115.733 24.5333C108.8 21.3333 102.933 18.6667 98.6667 16.5333V240C138.133 218.667 163.733 178.667 175.467 122.133C181.867 90.1333 181.867 61.3333 181.333 45.8667Z" fill="#92D3FF"/>
<path d="M98.6667 16.5333C96.5334 17.6 94.4 18.6667 91.7334 20.2667C75.2 28.2667 46.9334 40 15.4667 45.8667C14.9334 56.5333 14.9334 74.1333 17.0667 94.4C18.1334 102.4 19.2 110.933 20.8 119.467C21.3334 120 21.3334 120.533 21.3334 121.6C21.8667 124.8 22.9334 128 23.4667 131.2C24 132.267 24 133.333 24.5334 134.4C25.6 138.667 26.6667 143.467 28.2667 147.2C28.8 149.333 29.3334 150.933 29.8667 153.067C31.4667 157.867 33.6 162.667 35.2 166.933C36.8 170.667 38.4 174.933 40.5334 178.133C54.4 205.333 73.6 225.6 98.1334 238.933L98.6667 16.5333Z" fill="#54BBFF"/>
<path d="M160.511 175.853L175.973 160.39L205.012 189.428L189.55 204.891L160.511 175.853Z" fill="#666666"/>
<path d="M189.333 171.2L171.2 189.333C169.067 191.467 169.067 194.667 171.2 196.8L224.533 250.133C231.467 257.067 243.2 257.067 250.133 250.133C257.067 243.2 257.067 231.467 250.133 224.533L196.8 171.2C194.667 169.067 191.467 169.067 189.333 171.2Z" fill="#88C057"/>
<path d="M187.2 173.333L173.867 186.667C172.267 188.267 172.8 190.933 174.933 193.067L228.267 246.4C235.2 253.333 245.333 254.933 250.667 249.6C256 244.267 254.4 234.133 247.467 227.2L194.133 173.867C191.467 172.267 188.8 171.733 187.2 173.333Z" fill="#98D862"/>
<path d="M171.726 171.596C198.177 145.144 198.177 102.257 171.725 75.8063C145.273 49.3552 102.386 49.356 75.9351 75.808C49.4841 102.26 49.4848 145.146 75.9368 171.597C102.389 198.048 145.275 198.048 171.726 171.596Z" fill="#666666"/>
<path d="M178.667 121.067C179.2 136 173.867 150.933 162.667 162.667C153.6 171.733 142.4 176.533 131.2 178.133C130.667 178.133 129.6 178.133 129.067 178.667H120.533C107.733 177.6 95.4667 172.267 85.8667 162.667C74.6667 151.467 69.3334 137.067 69.8667 122.667C70.4 108.8 75.7334 95.4667 85.8667 84.8C90.1334 80.5333 94.9334 77.3333 99.7334 74.6667C100.8 74.1333 101.867 73.6 102.4 73.0667C102.933 73.0667 103.467 72.5333 104 72.5333C118.4 66.6667 134.933 67.2 149.333 74.6667C154.133 77.3333 158.933 80.5333 163.2 84.8C172.8 94.9333 178.133 107.733 178.667 121.067Z" fill="white"/>
<path d="M148.8 41.6C147.2 40 144 35.2 139.2 35.2C134.4 35.2 126.4 35.7333 119.467 35.7333C113.067 36.2666 108.8 35.7333 106.667 36.8C104.533 37.8666 101.867 37.3333 100.8 41.0666C100.267 44.2666 99.2 43.2 100.267 49.0666C101.333 55.4666 101.867 55.4666 101.867 57.6C101.867 59.7333 100.8 58.6666 102.933 60.8C104.533 62.9333 114.133 62.9333 115.2 63.4666C116.267 64 127.467 64 127.467 64L148.8 62.9333C148.8 62.9333 152.533 48.5333 152 48C152 47.4666 150.4 43.2 148.8 41.6Z" fill="#FFCC66"/>
<path d="M178.667 121.067C179.2 136 173.867 150.933 162.667 162.667C153.6 171.733 142.4 176.533 131.2 178.133C130.667 178.133 129.6 178.133 129.067 178.667H120.533C107.733 177.6 95.4667 172.267 85.8667 162.667C74.6667 151.467 69.3334 137.067 69.8667 122.667C72 121.067 74.1334 120 76.2667 119.467L99.2 112L104.533 110.4L107.733 109.333L120 105.067L125.867 102.933L131.733 105.067L144 109.333L146.667 110.4L152.533 112.533L174.933 120C176 120 177.6 120.533 178.667 121.067Z" fill="#9A7BAA"/>
<path d="M152.533 112V117.333L149.867 145.067L143.467 165.333L134.4 173.333C134.4 173.333 131.2 176.533 129.067 178.133H122.133L121.067 177.067L118.4 173.867L117.333 172.8L115.733 171.2L108.267 156.8L99.7334 135.467L98.6667 123.733V112H152.533Z" fill="white"/>
<path d="M146.667 117.867L135.467 126.4L129.067 130.667H112.533L107.2 121.067C107.2 121.067 102.933 114.667 102.933 114.133V110.933L104 106.667C104.533 106.133 109.333 100.267 108.267 88.5333H140.8C139.733 100.267 145.067 106.667 145.067 106.667L146.667 117.867Z" fill="#E7B95D"/>
<path d="M134.4 132.8L130.667 139.733L131.2 146.133L133.333 166.933L133.867 172.8C132.267 173.867 131.2 176 129.6 177.6H123.2C122.667 177.6 122.667 177.067 122.133 176.533L119.467 173.333C118.933 173.333 118.933 172.8 118.4 172.8V172.267L118.933 166.4L120.533 145.067L121.067 138.667L117.333 131.733L115.733 129.067L121.067 120H121.6L126.4 124.267L131.2 120H131.733L134.933 125.867L137.067 129.067L134.4 132.8Z" fill="#54BBFF"/>
<path d="M163.2 132.8C163.2 132.8 159.467 158.933 133.867 176.533C132.8 177.067 132.267 177.6 131.2 178.133C130.667 178.133 129.6 178.133 129.067 178.667H127.467C129.067 176 131.2 172.267 133.867 167.467C141.333 153.067 152.533 129.6 153.067 112.533L161.6 125.333L154.133 128L163.2 132.8ZM117.333 167.467C120 172.267 121.6 176 123.2 178.667H119.467C118.4 178.133 117.333 177.6 116.267 176.533C90.6667 158.933 86.9333 132.8 86.9333 132.8L96 128L89.0667 124.8L97.6 112V113.6C99.7334 131.2 110.4 153.6 117.333 167.467Z" fill="#81688E"/>
<path d="M152.533 112L140.8 138.133L134.4 132.8L125.333 125.333L130.133 121.6L146.133 107.2L152.533 112ZM125.333 125.333L116.267 132.8L109.867 138.133L98.1333 112L104.533 107.2L120.533 121.6L125.333 125.333Z" fill="#E6E6E6"/>
<path d="M98.6666 58.6666C95.9999 58.6666 94.3999 62.4 94.3999 67.2C94.9332 72 97.0666 75.2 99.7332 75.2C102.4 75.2 104 71.4666 104 66.6666C104 61.8666 101.333 58.6666 98.6666 58.6666ZM151.467 58.6666C154.133 58.6666 155.733 62.4 155.733 67.2C155.2 72 153.067 75.2 150.4 75.2C147.733 75.2 146.133 71.4666 146.133 66.6666C146.133 61.8666 148.8 58.6666 151.467 58.6666Z" fill="#FFCC66"/>
<path d="M118.933 37.8667H131.2C140.8 37.8667 148.8 49.6 148.8 59.2V83.7334C148.8 87.4667 147.733 90.6667 145.067 93.3334L137.6 101.333C134.933 104.533 131.2 106.133 126.933 106.133H122.667C118.933 106.133 114.667 104.533 112 101.333L104.533 93.3334C102.4 90.6667 100.8 87.4667 100.8 83.7334V59.2C101.867 49.6 109.333 37.8667 118.933 37.8667Z" fill="#FFCC66"/>
<path d="M148.267 35.2C148.267 35.2 149.867 23.4666 138.667 19.7333C133.333 17.6 126.933 18.6666 122.133 21.8666C116.267 25.6 107.2 30.9333 103.467 25.6C103.467 25.6 102.4 27.7333 104.533 30.9333C104.533 30.9333 100.8 32 101.333 27.2C101.333 27.2 98.1333 28.8 99.7333 34.6666C99.7333 34.6666 96.5333 35.7333 96.5333 32C96.5333 32 93.3333 35.7333 96.5333 39.4666C96.5333 39.4666 94.4 40.5333 93.3333 38.4C93.3333 38.4 91.7333 41.6 93.8667 44.2666C94.4 45.3333 95.4667 45.8666 95.4667 46.9333C97.6 50.6666 102.4 60.8 102.4 69.3333H104C104 69.3333 98.1333 42.1333 108.267 38.4C108.8 38.4 109.867 37.8666 110.933 38.4C115.2 38.9333 131.2 41.0666 140.267 40C142.933 40 145.067 41.0666 146.133 43.2C147.733 46.9333 149.333 54.4 146.667 69.3333H147.733C148.267 69.8666 165.867 36.8 148.267 35.2Z" fill="#333333"/>
</g>
<defs>
<clipPath id="clip0_2_300">
<rect width="256" height="256" fill="white"/>
</clipPath>
</defs>
</svg>
