<svg width="158" height="60" viewBox="0 0 158 60" fill="none" xmlns="http://www.w3.org/2000/svg">
<path d="M2.14192 49.2904C1.57385 49.2904 1.02904 49.0648 0.627353 48.6631C0.225666 48.2614 0 47.7166 0 47.1485V27.8712C0 27.3032 0.225666 26.7584 0.627353 26.3567C1.02904 25.955 1.57385 25.7293 2.14192 25.7293C2.70999 25.7293 3.25479 25.955 3.65648 26.3567C4.05817 26.7584 4.28383 27.3032 4.28383 27.8712V47.1485C4.28383 47.7166 4.05817 48.2614 3.65648 48.6631C3.25479 49.0648 2.70999 49.2904 2.14192 49.2904ZM53.5479 49.2904C52.9799 49.2904 52.435 49.0648 52.0334 48.6631C51.6317 48.2614 51.406 47.7166 51.406 47.1485V27.8712C51.406 27.3032 51.6317 26.7584 52.0334 26.3567C52.435 25.955 52.9799 25.7293 53.5479 25.7293C54.116 25.7293 54.6608 25.955 55.0625 26.3567C55.4642 26.7584 55.6898 27.3032 55.6898 27.8712V47.1485C55.6898 47.7166 55.4642 48.2614 55.0625 48.6631C54.6608 49.0648 54.116 49.2904 53.5479 49.2904ZM47.1222 25.7293H8.56767C7.9996 25.7293 7.45479 25.955 7.05311 26.3567C6.65142 26.7584 6.42575 27.3032 6.42575 27.8712V38.5808C6.42575 48.6907 14.67 60 25.703 60H29.9868C41.0199 60 49.2641 48.6907 49.2641 38.5808V27.8712C49.2641 27.3032 49.0384 26.7584 48.6367 26.3567C48.2351 25.955 47.6903 25.7293 47.1222 25.7293ZM38.3296 35.2544L29.7619 52.3898C29.5836 52.7455 29.3099 53.0447 28.9714 53.2538C28.6329 53.463 28.2429 53.5739 27.8449 53.5743C27.5123 53.5748 27.1842 53.4976 26.8867 53.3488C26.5892 53.2001 26.3306 52.9839 26.1314 52.7175L19.7056 44.1498C19.5363 43.925 19.4131 43.669 19.3429 43.3964C19.2728 43.1238 19.2572 42.8401 19.297 42.5615C19.3368 42.2829 19.4312 42.0149 19.5749 41.7729C19.7185 41.5308 19.9085 41.3195 20.134 41.1511C20.3587 40.9815 20.6147 40.8581 20.8874 40.7878C21.16 40.7175 21.4438 40.7018 21.7225 40.7416C22.0012 40.7814 22.2692 40.876 22.5112 41.0198C22.7533 41.1636 22.9645 41.3538 23.1327 41.5795L27.4808 47.3734L34.4977 33.3396C34.7693 32.863 35.2132 32.5087 35.738 32.3495C36.2629 32.1902 36.8288 32.2382 37.3194 32.4834C37.8099 32.7287 38.1879 33.1527 38.3754 33.6681C38.5629 34.1836 38.5457 34.7513 38.3275 35.2544H38.3296ZM39.6533 6.24002L42.2108 3.68257C42.4153 3.48499 42.5785 3.24864 42.6908 2.98732C42.803 2.72599 42.8621 2.44493 42.8646 2.16053C42.8671 1.87613 42.8129 1.59408 42.7052 1.33085C42.5975 1.06761 42.4384 0.828464 42.2373 0.627353C42.0362 0.426243 41.797 0.267199 41.5338 0.159501C41.2706 0.0518037 40.9885 -0.00239051 40.7041 8.08718e-05C40.4197 0.00255225 40.1387 0.0616398 39.8773 0.173896C39.616 0.286151 39.3797 0.449327 39.1821 0.653902L35.8878 3.94603C33.4353 2.81724 30.7151 2.16824 27.8449 2.16824C24.9748 2.16824 22.2545 2.81724 19.802 3.94817L16.5078 0.653902C16.3102 0.449327 16.0738 0.286151 15.8125 0.173896C15.5512 0.0616398 15.2701 0.00255225 14.9857 8.08718e-05C14.7013 -0.00239051 14.4193 0.0518037 14.156 0.159501C13.8928 0.267199 13.6536 0.426243 13.4525 0.627353C13.2514 0.828464 13.0924 1.06761 12.9847 1.33085C12.877 1.59408 12.8228 1.87613 12.8253 2.16053C12.8277 2.44493 12.8868 2.72599 12.9991 2.98732C13.1113 3.24864 13.2745 3.48499 13.4791 3.68257L16.0365 6.24002C11.5021 9.77204 8.56767 15.2661 8.56767 21.4455C8.56767 22.0136 8.79334 22.5584 9.19502 22.9601C9.59671 23.3617 10.1415 23.5874 10.7096 23.5874H44.9803C45.5483 23.5874 46.0931 23.3617 46.4948 22.9601C46.8965 22.5584 47.1222 22.0136 47.1222 21.4455C47.1222 15.2661 44.1878 9.77204 39.6533 6.24002ZM21.4834 18.2326C19.7121 18.2326 18.2641 16.7975 18.2641 15.0197C18.2641 13.2419 19.6821 11.8069 21.4492 11.8069H21.4834C23.2527 11.8069 24.6899 13.2419 24.6899 15.0197C24.6899 16.7975 23.2548 18.2326 21.4834 18.2326ZM34.3349 18.2326C32.5636 18.2326 31.1156 16.7975 31.1156 15.0197C31.1156 13.2419 32.5336 11.8069 34.3007 11.8069H34.3349C36.1042 11.8069 37.5414 13.2419 37.5414 15.0197C37.5414 16.7975 36.1042 18.2326 34.3349 18.2326Z" fill="#FFC247"/>
<path d="M146.902 22.26C148.894 22.26 150.67 22.68 152.23 23.52C153.814 24.336 155.05 25.524 155.938 27.084C156.85 28.644 157.306 30.468 157.306 32.556C157.306 34.644 156.85 36.468 155.938 38.028C155.05 39.588 153.814 40.788 152.23 41.628C150.67 42.444 148.894 42.852 146.902 42.852C144.91 42.852 143.122 42.444 141.538 41.628C139.954 40.788 138.706 39.588 137.794 38.028C136.906 36.468 136.462 34.644 136.462 32.556C136.462 30.468 136.906 28.644 137.794 27.084C138.706 25.524 139.954 24.336 141.538 23.52C143.122 22.68 144.91 22.26 146.902 22.26ZM146.902 27.588C145.726 27.588 144.73 28.02 143.914 28.884C143.122 29.724 142.726 30.948 142.726 32.556C142.726 34.164 143.122 35.388 143.914 36.228C144.73 37.068 145.726 37.488 146.902 37.488C148.078 37.488 149.062 37.068 149.854 36.228C150.646 35.388 151.042 34.164 151.042 32.556C151.042 30.948 150.646 29.724 149.854 28.884C149.062 28.02 148.078 27.588 146.902 27.588Z" fill="white"/>
<path d="M120.739 22.26C122.275 22.26 123.595 22.608 124.699 23.304C125.803 24 126.619 24.948 127.147 26.148V22.512H133.267V42.492C133.267 44.364 132.907 46.044 132.187 47.532C131.467 49.044 130.363 50.244 128.875 51.132C127.387 52.02 125.539 52.464 123.331 52.464C120.307 52.464 117.883 51.744 116.059 50.304C114.259 48.888 113.179 46.956 112.819 44.508H118.903C119.095 45.324 119.527 45.96 120.199 46.416C120.895 46.872 121.795 47.1 122.899 47.1C124.171 47.1 125.191 46.728 125.959 45.984C126.751 45.264 127.147 44.1 127.147 42.492V38.964C126.619 40.164 125.803 41.112 124.699 41.808C123.595 42.504 122.275 42.852 120.739 42.852C119.083 42.852 117.595 42.444 116.275 41.628C114.979 40.788 113.947 39.588 113.179 38.028C112.435 36.468 112.063 34.644 112.063 32.556C112.063 30.444 112.435 28.62 113.179 27.084C113.947 25.524 114.979 24.336 116.275 23.52C117.595 22.68 119.083 22.26 120.739 22.26ZM122.719 27.66C121.399 27.66 120.331 28.092 119.515 28.956C118.723 29.82 118.327 31.02 118.327 32.556C118.327 34.092 118.723 35.292 119.515 36.156C120.331 37.02 121.399 37.452 122.719 37.452C124.015 37.452 125.071 37.008 125.887 36.12C126.727 35.232 127.147 34.044 127.147 32.556C127.147 31.044 126.727 29.856 125.887 28.992C125.071 28.104 124.015 27.66 122.719 27.66Z" fill="white"/>
<path d="M99.5113 22.26C101.503 22.26 103.279 22.68 104.839 23.52C106.423 24.336 107.659 25.524 108.547 27.084C109.459 28.644 109.915 30.468 109.915 32.556C109.915 34.644 109.459 36.468 108.547 38.028C107.659 39.588 106.423 40.788 104.839 41.628C103.279 42.444 101.503 42.852 99.5113 42.852C97.5193 42.852 95.7313 42.444 94.1473 41.628C92.5633 40.788 91.3153 39.588 90.4033 38.028C89.5153 36.468 89.0713 34.644 89.0713 32.556C89.0713 30.468 89.5153 28.644 90.4033 27.084C91.3153 25.524 92.5633 24.336 94.1473 23.52C95.7313 22.68 97.5193 22.26 99.5113 22.26ZM99.5113 27.588C98.3353 27.588 97.3393 28.02 96.5233 28.884C95.7313 29.724 95.3353 30.948 95.3353 32.556C95.3353 34.164 95.7313 35.388 96.5233 36.228C97.3393 37.068 98.3353 37.488 99.5113 37.488C100.687 37.488 101.671 37.068 102.463 36.228C103.255 35.388 103.651 34.164 103.651 32.556C103.651 30.948 103.255 29.724 102.463 28.884C101.671 28.02 100.687 27.588 99.5113 27.588Z" fill="white"/>
<path d="M79.0798 37.884H87.2878V42.6H72.9238V17.1479H79.0798V37.884Z" fill="white"/>
</svg>
