<svg width="21" height="15" viewBox="0 0 21 15" fill="none" xmlns="http://www.w3.org/2000/svg">
<g clip-path="url(#clip0_1_184)">
<path d="M13.4063 0.744351C13.2371 0.916415 13.1423 1.14805 13.1423 1.38935C13.1423 1.63065 13.2371 1.86229 13.4063 2.03435L17.6563 6.31435H1.55625C1.42806 6.30093 1.29847 6.3146 1.1759 6.35447C1.05332 6.39434 0.940494 6.45952 0.844724 6.54579C0.748954 6.63205 0.67238 6.73748 0.619966 6.85524C0.567551 6.973 0.540466 7.10046 0.540466 7.22935C0.540466 7.35825 0.567551 7.4857 0.619966 7.60346C0.67238 7.72122 0.748954 7.82665 0.844724 7.91292C0.940494 7.99918 1.05332 8.06437 1.1759 8.10423C1.29847 8.1441 1.42806 8.15777 1.55625 8.14435H17.6563L13.3963 12.4844C13.2294 12.6576 13.1362 12.8888 13.1362 13.1294C13.1362 13.3699 13.2294 13.6011 13.3963 13.7744C13.4789 13.8572 13.5771 13.9229 13.6852 13.9678C13.7933 14.0126 13.9092 14.0357 14.0263 14.0357C14.1433 14.0357 14.2592 14.0126 14.3673 13.9678C14.4754 13.9229 14.5736 13.8572 14.6563 13.7744L20.3963 7.88435C20.4743 7.79813 20.5384 7.70029 20.5863 7.59435C20.6344 7.48405 20.6583 7.36469 20.6563 7.24435C20.6572 7.12581 20.6347 7.00824 20.5901 6.89841C20.5455 6.78858 20.4796 6.68865 20.3963 6.60435L14.6563 0.764351C14.4976 0.602025 14.283 0.50644 14.0562 0.497146C13.8294 0.487852 13.6076 0.565551 13.4363 0.714351L13.4063 0.744351Z" fill="black"/>
</g>
<defs>
<clipPath id="clip0_1_184">
<rect width="20" height="13.5" fill="white" transform="translate(0.65625 0.484375)"/>
</clipPath>
</defs>
</svg>
